<svg version="1.1" id="Layer_1" xmlns="http://www.w3.org/2000/svg" xmlns:xlink="http://www.w3.org/1999/xlink" x="0px" y="0px"
	 width="100%" viewBox="0 0 1840 350" enable-background="new 0 0 1840 350" xml:space="preserve">
<path fill="#000000" opacity="1.000000" stroke="none" 
	d="
M1841.000000,250.000000 
	C1841.000000,283.658630 1841.000000,317.317230 1841.000000,351.000000 
	C1294.638672,351.000000 748.277283,351.000000 201.157547,350.635590 
	C202.569107,349.841278 204.747604,349.450348 206.907623,348.975525 
	C230.150253,343.865570 251.888443,335.473572 271.932190,322.203949 
	C288.258636,311.395294 302.241028,298.242035 314.059082,283.040802 
	C323.471466,270.933838 331.501831,257.711792 337.129944,243.116653 
	C343.488525,226.627258 348.974487,209.857056 349.732391,192.252594 
	C350.375336,177.317612 349.253113,162.227249 347.855591,147.304550 
	C346.221680,129.857224 339.963257,113.479500 332.232666,97.981560 
	C323.101013,79.674820 311.631470,62.733532 295.773834,49.330444 
	C286.816101,41.759251 278.067474,33.781593 268.329712,27.339977 
	C259.712769,21.639824 249.987198,17.525223 240.515045,13.231339 
	C228.742981,7.894876 216.327179,4.574676 203.475372,2.922974 
	C202.582611,2.808238 201.822037,1.664970 201.000000,1.000001 
	C747.666687,1.000000 1294.333374,1.000000 1841.000000,1.000000 
	C1841.000000,6.753508 1841.000000,12.418774 1840.531372,18.542831 
	C1821.569458,19.001593 1803.074585,19.127226 1784.583862,18.908237 
	C1780.262695,18.857059 1778.882202,19.980387 1778.901978,24.469118 
	C1779.073242,63.288216 1779.000244,102.108383 1779.000000,140.928238 
	C1779.000000,142.489441 1779.000000,144.050644 1779.000000,146.824509 
	C1777.421631,144.593872 1776.656250,143.435883 1775.815552,142.335464 
	C1765.968262,129.446152 1756.039795,116.618172 1746.275146,103.666595 
	C1737.702515,92.296295 1729.352051,80.758774 1720.827759,69.351715 
	C1709.845337,54.655178 1698.928101,39.905312 1687.650513,25.437305 
	C1685.200806,22.294548 1683.074585,18.577097 1677.332275,18.791430 
	C1661.193726,19.393789 1645.015381,19.160250 1628.858521,18.899883 
	C1624.331177,18.826923 1622.882690,19.922426 1622.892700,24.694557 
	C1623.047974,98.335320 1623.000122,171.976517 1623.011719,245.617599 
	C1623.011963,247.043030 1623.159668,248.468430 1623.226196,249.670807 
	C1644.732544,249.670807 1665.800293,249.670807 1687.035400,249.670807 
	C1687.035400,207.743439 1687.035400,166.144608 1687.035400,123.647362 
	C1690.668091,128.335663 1693.811646,132.378632 1696.940308,136.433014 
	C1705.961304,148.123260 1715.057373,159.756821 1723.969238,171.529846 
	C1731.611694,181.625931 1738.917358,191.977631 1746.593628,202.047379 
	C1757.934937,216.925385 1769.621216,231.543182 1780.795654,246.543625 
	C1782.907104,249.378052 1784.875122,250.067657 1788.018677,250.049362 
	C1805.678589,249.946548 1823.339478,249.999908 1841.000000,250.000000 
M538.500000,249.999741 
	C558.301636,250.219070 577.840637,249.876526 596.809631,242.244476 
	C613.584290,235.495331 627.122192,225.778793 634.900391,209.244308 
	C639.688782,199.065460 640.791199,188.370895 639.251282,177.007339 
	C637.842285,166.610428 634.249084,157.428574 628.442200,148.996155 
	C620.453064,137.394821 608.812500,131.104187 594.525635,127.257309 
	C605.267029,125.016396 613.393433,119.476555 619.605530,112.412682 
	C633.234802,96.914879 636.241699,75.310234 627.718079,56.474033 
	C620.647766,40.849426 606.744019,33.159248 591.677917,26.902754 
	C575.814148,20.315035 558.987610,19.526125 542.348877,19.208591 
	C506.879059,18.531689 471.386993,19.074825 435.904999,18.908073 
	C431.464325,18.887203 429.878845,19.798502 429.889435,24.645672 
	C430.050049,98.276215 429.999878,171.907211 430.011230,245.538101 
	C430.011444,246.970093 430.159119,248.402054 430.247131,249.999741 
	C466.237366,249.999741 501.868683,249.999741 538.500000,249.999741 
M1273.522705,230.013855 
	C1274.467896,230.627411 1275.413696,231.239792 1276.358032,231.854675 
	C1295.380737,244.240875 1316.241211,251.678207 1338.855957,252.775177 
	C1351.122803,253.370224 1363.539307,252.069214 1375.819946,250.904266 
	C1392.630493,249.309616 1407.758667,242.477417 1422.046509,233.928391 
	C1439.309570,223.599152 1453.271362,209.582840 1462.445679,191.750198 
	C1473.342529,170.569748 1478.991577,148.055664 1476.152832,123.759399 
	C1474.467041,109.331825 1471.082031,95.482086 1464.718506,82.588455 
	C1458.296753,69.576447 1449.587891,58.201439 1438.353394,48.577492 
	C1427.528564,39.304623 1415.573242,32.376549 1402.575317,26.931923 
	C1392.243530,22.604057 1381.530029,19.442780 1370.340210,19.097200 
	C1355.859131,18.649969 1341.205322,17.760487 1326.904663,19.437437 
	C1315.822144,20.737020 1304.806641,24.820038 1294.390259,29.171152 
	C1264.094482,41.826256 1243.184448,63.895119 1232.037598,94.860252 
	C1226.719116,109.634415 1224.272339,124.962448 1226.078247,140.663208 
	C1227.260620,150.944138 1228.582153,161.279816 1230.919678,171.340439 
	C1234.341309,186.067017 1242.379272,198.750793 1251.962036,210.112961 
	C1258.060669,217.344147 1265.922974,223.087769 1273.522705,230.013855 
M995.026855,96.856316 
	C993.352173,105.234154 990.612122,113.561981 990.216003,121.999847 
	C989.280151,141.936066 990.639404,161.439911 998.479980,180.576630 
	C1006.919617,201.175323 1020.000244,217.617035 1037.374634,230.506607 
	C1055.684448,244.090286 1076.893677,251.464767 1099.707642,252.876541 
	C1120.198608,254.144547 1140.148926,251.594498 1159.327393,243.161606 
	C1176.731567,235.508820 1192.232056,225.418839 1206.126099,212.533234 
	C1209.785156,209.139725 1208.981445,207.404602 1205.942627,204.291489 
	C1196.721558,194.845139 1187.834717,185.070908 1178.884521,175.362778 
	C1175.753418,171.966446 1172.816528,168.391068 1169.388184,164.432587 
	C1165.950562,168.168365 1163.963623,171.020584 1161.344116,173.060440 
	C1145.779785,185.180496 1129.101196,194.733505 1108.342651,191.850891 
	C1102.097412,190.983643 1095.576416,189.296829 1090.089478,186.315079 
	C1075.277710,178.265976 1065.821411,165.627182 1062.520264,148.961014 
	C1058.697754,129.663040 1060.489624,111.175316 1073.390747,95.354584 
	C1078.610840,88.953247 1084.614136,83.186432 1092.710938,79.875076 
	C1102.416870,75.905655 1112.355103,73.856552 1122.496216,76.184814 
	C1130.383423,77.995590 1138.669434,80.240257 1145.373535,84.501831 
	C1154.369507,90.220177 1162.011597,98.068451 1170.332153,105.084305 
	C1182.805176,90.356316 1195.993652,74.783455 1210.122925,58.099766 
	C1202.888550,52.273632 1196.248047,46.077393 1188.771973,41.148472 
	C1181.586792,36.411297 1173.492920,33.067360 1165.876221,28.966524 
	C1153.292114,22.191380 1139.532104,19.361212 1125.599731,18.227568 
	C1115.449829,17.401691 1105.103760,18.318947 1094.892090,19.084702 
	C1081.126099,20.116989 1068.143921,24.183905 1055.578125,29.974438 
	C1035.813232,39.082386 1020.012146,52.833183 1008.067627,70.738014 
	C1002.858643,78.546188 999.540039,87.615402 995.026855,96.856316 
M912.999390,83.541763 
	C912.999390,80.768860 912.999390,77.995964 912.999390,74.846603 
	C931.284485,74.846603 949.025085,74.846603 966.719604,74.846603 
	C966.719604,56.375515 966.719604,38.305099 966.719604,20.277416 
	C907.373413,20.277416 848.307495,20.277416 789.281128,20.277416 
	C789.281128,38.626228 789.281128,56.696621 789.281128,75.163818 
	C807.297791,75.163818 825.038269,75.163818 843.164185,75.163818 
	C843.164185,133.630249 843.164185,191.697617 843.164185,249.719269 
	C866.628906,249.719269 889.698792,249.719269 912.999573,249.719269 
	C912.999573,194.470642 912.999573,139.502136 912.999390,83.541763 
M690.521790,19.001673 
	C687.083191,19.001673 683.644592,19.001673 680.274292,19.001673 
	C680.274292,96.295135 680.274292,173.024582 680.274292,249.724380 
	C703.285583,249.724380 726.021606,249.724380 748.796814,249.724380 
	C748.884338,248.979218 748.989197,248.502716 748.989258,248.026215 
	C748.997314,173.205048 748.970215,98.383835 749.075378,23.562809 
	C749.080994,19.565493 747.467102,18.916019 744.008240,18.941736 
	C726.512085,19.071810 709.014343,19.001659 690.521790,19.001673 
M1582.999023,227.499939 
	C1582.999023,158.080002 1582.999023,88.660057 1582.999023,19.001431 
	C1561.473145,19.001431 1540.500366,19.121634 1519.531006,18.904024 
	C1515.128052,18.858334 1513.901245,20.116468 1513.908936,24.523596 
	C1514.038086,98.343948 1513.999878,172.164597 1514.010986,245.985168 
	C1514.011108,247.255875 1514.160156,248.526535 1514.234497,249.713821 
	C1537.306763,249.713821 1560.042725,249.713821 1582.999146,249.713821 
	C1582.999146,242.452835 1582.999146,235.476364 1582.999023,227.499939 
M496.999054,333.495300 
	C496.999054,319.066986 496.999054,304.638672 496.999054,290.108978 
	C489.456329,290.108978 482.489960,290.108978 475.616241,290.108978 
	C471.770721,299.481964 467.971710,308.741577 463.990143,318.446136 
	C459.656769,308.471588 455.671448,299.298187 451.748352,290.268005 
	C444.773010,290.268005 438.013794,290.268005 431.269257,290.268005 
	C431.269257,309.607056 431.269257,328.676819 431.269257,347.727539 
	C436.947601,347.727539 442.352478,347.727539 448.134735,347.727539 
	C448.134735,338.155579 448.134735,328.849640 448.134735,318.232208 
	C449.584808,322.003540 450.547302,324.494568 451.500397,326.989227 
	C452.528717,329.680725 453.491394,332.398804 454.582062,335.064667 
	C457.944946,343.284515 457.962158,343.217743 466.812500,343.037445 
	C469.232422,342.988129 470.345764,342.503876 471.235596,339.763855 
	C473.268921,333.502808 476.187958,327.529358 479.223511,320.305603 
	C479.223511,330.259766 479.223511,339.023834 479.223511,347.711853 
	C485.310608,347.711853 491.049072,347.711853 496.999054,347.711853 
	C496.999054,343.114136 496.999054,338.803101 496.999054,333.495300 
M808.210815,290.000214 
	C803.928589,290.000214 799.646301,290.000214 795.364319,290.000214 
	C795.364319,309.592896 795.364319,328.764862 795.364319,347.640350 
	C801.804077,347.640350 807.877502,347.640350 814.354614,347.640350 
	C814.354614,338.637177 814.354614,329.991638 814.354614,320.424957 
	C820.929565,329.286957 826.830017,337.387146 832.940735,345.325439 
	C833.913940,346.589752 835.787170,347.773590 837.321411,347.879700 
	C842.078003,348.208649 846.871643,347.999969 851.805176,347.999969 
	C851.805176,328.513245 851.805176,309.459656 851.805176,290.368958 
	C845.752014,290.368958 839.900391,290.368958 833.861450,290.368958 
	C833.861450,299.325348 833.861450,307.913239 833.861450,317.939972 
	C828.068298,310.309692 823.217285,303.530884 817.920410,297.120514 
	C815.544189,294.244812 814.266663,289.598389 808.210815,290.000214 
M883.004333,306.587006 
	C884.305359,306.057922 885.599060,305.092926 886.908691,305.070740 
	C895.179077,304.930695 903.453064,304.999725 911.739380,304.999725 
	C911.739380,299.745026 911.739380,295.006195 911.739380,290.263550 
	C895.074219,290.263550 878.670288,290.263550 862.266724,290.263550 
	C862.266724,309.598694 862.266724,328.668915 862.266724,347.731140 
	C879.271667,347.731140 896.009338,347.731140 912.725647,347.731140 
	C912.725647,342.717377 912.725647,337.978088 912.725647,332.861572 
	C902.701660,332.861572 892.945129,332.861572 883.266479,332.861572 
	C883.266479,330.730530 883.266479,328.991730 883.266479,326.856506 
	C891.940430,326.856506 900.354553,326.856506 908.721863,326.856506 
	C908.721863,321.375092 908.721863,316.303009 908.721863,310.999451 
	C900.971313,310.999451 893.490173,310.823395 886.024353,311.084473 
	C882.956177,311.191803 882.792725,309.741821 883.004333,306.587006 
M647.504944,311.998871 
	C642.510498,323.752533 637.516052,335.506195 632.327148,347.717560 
	C634.261414,347.848663 635.376343,347.983978 636.491943,347.989502 
	C641.322144,348.013397 646.160034,348.142120 650.976807,347.886780 
	C652.023499,347.831329 653.735229,346.459991 653.877136,345.506653 
	C654.637329,340.399231 657.739075,339.415253 662.192444,339.955048 
	C664.326416,340.213715 666.517700,339.999969 668.682983,339.999969 
	C676.971313,340.000031 676.971313,340.000000 679.527222,347.767487 
	C686.618530,347.767487 693.699646,347.767487 700.940735,347.767487 
	C692.991699,328.342987 685.147827,309.175659 677.301086,290.001190 
	C671.142029,290.001190 665.146606,289.911377 659.158386,290.078735 
	C657.994263,290.111298 656.201721,290.862885 655.814514,291.762756 
	C653.036011,298.219635 650.545837,304.800568 647.504944,311.998871 
M523.956055,345.356689 
	C524.455566,343.558411 524.955139,341.760101 525.400024,340.158569 
	C532.792175,340.158569 539.764526,340.158569 545.459839,340.158569 
	C547.683899,343.244690 549.137695,347.372192 551.158752,347.671631 
	C557.273621,348.577576 563.608398,347.999084 569.776306,347.999084 
	C569.894653,347.112701 570.070679,346.731445 569.963440,346.463776 
	C562.639404,328.190216 555.322876,309.913330 547.852661,291.699524 
	C547.501221,290.842651 545.775269,290.103821 544.669983,290.075745 
	C538.532837,289.919922 532.389648,290.001007 526.407410,290.001007 
	C518.195190,309.426483 510.113251,328.543945 501.888397,347.999390 
	C508.283417,347.999390 513.948853,348.116455 519.602478,347.911011 
	C520.896667,347.863983 522.150330,346.705597 523.956055,345.356689 
M726.500000,290.000000 
	C719.074219,290.000000 711.648499,290.000000 704.279419,290.000000 
	C704.279419,295.297882 704.279419,300.032654 704.279419,305.166565 
	C712.561401,305.166565 720.572754,305.166565 729.325745,305.166565 
	C722.986328,312.568085 717.352295,319.528198 711.299194,326.102448 
	C705.615356,332.275543 700.409180,338.380768 703.645935,347.808960 
	C721.145020,347.808960 738.867493,347.808960 756.634277,347.808960 
	C756.634277,342.423248 756.634277,337.236725 756.634277,331.631775 
	C747.948853,331.631775 739.626953,331.631775 731.122192,331.631775 
	C737.929199,323.706818 743.963013,315.651764 751.086426,308.715607 
	C756.750977,303.199921 757.876526,297.304169 756.567383,290.000061 
	C746.768982,290.000061 737.134460,290.000061 726.500000,290.000000 
M573.357178,330.881104 
	C577.075867,335.202209 580.220825,340.261902 584.633606,343.689453 
	C593.615112,350.665741 617.538025,349.782990 626.575378,342.844513 
	C627.264465,342.315460 627.920532,341.239899 627.931519,340.409637 
	C628.034180,332.655334 627.992371,324.899109 627.992371,317.317505 
	C621.951477,317.317505 616.541992,317.317505 611.000061,317.317505 
	C611.000061,320.620789 610.883179,323.613281 611.034668,326.592133 
	C611.171509,329.283356 610.410950,330.513489 607.476257,331.309204 
	C600.390442,333.230347 595.517151,330.950134 592.614990,323.060516 
	C589.606995,314.883362 595.586914,304.054504 603.937744,306.073914 
	C608.958618,307.288055 613.801575,309.237946 618.979309,310.940979 
	C621.204956,308.322998 623.980347,304.684845 627.159485,301.442474 
	C629.502014,299.053406 629.424622,297.221680 626.536926,295.969727 
	C621.007080,293.572205 615.462402,291.060394 609.693176,289.395020 
	C598.597717,286.192169 582.312500,292.661835 575.973022,302.326691 
	C570.228638,311.084381 569.610229,320.411072 573.357178,330.881104 
M1188.976440,313.463470 
	C1195.989136,322.027222 1202.994019,330.597351 1210.017578,339.152191 
	C1213.822388,343.786499 1216.324463,350.696167 1224.657715,347.543823 
	C1224.657715,328.100037 1224.657715,308.583801 1224.657715,289.350952 
	C1221.571289,289.350952 1218.831909,289.350952 1215.694580,289.350952 
	C1215.694580,303.672241 1215.694580,317.645477 1215.694580,332.349335 
	C1214.241211,330.391113 1213.318726,329.094208 1212.341431,327.839905 
	C1204.067139,317.219299 1195.961914,306.458862 1187.408203,296.067963 
	C1184.227539,292.204193 1181.413940,286.446716 1174.299927,289.545746 
	C1174.299927,308.792053 1174.299927,328.314575 1174.299927,347.697144 
	C1177.344604,347.697144 1180.082031,347.697144 1183.206787,347.697144 
	C1183.206787,333.747070 1183.206787,320.096619 1183.206787,305.965057 
	C1185.208008,308.638733 1186.827881,310.802917 1188.976440,313.463470 
M1103.979248,303.922852 
	C1101.184937,296.975891 1096.747192,291.087311 1089.086548,290.215057 
	C1078.211548,288.976807 1067.186890,289.052979 1056.256958,288.568848 
	C1056.256958,308.977448 1056.256958,328.357727 1056.256958,347.745667 
	C1059.587769,347.745667 1062.655884,347.745667 1066.104248,347.745667 
	C1066.104248,342.095367 1066.104248,336.686279 1066.104248,330.999664 
	C1071.114624,330.999664 1075.748291,331.173798 1080.364136,330.960785 
	C1088.236450,330.597504 1095.697754,329.202332 1100.604614,321.956665 
	C1104.191528,316.660278 1106.560547,311.218842 1103.979248,303.922852 
M997.008728,346.871002 
	C998.356079,343.441101 999.484192,339.898224 1001.164062,336.639709 
	C1001.793213,335.419189 1003.686646,334.153107 1005.037170,334.115692 
	C1013.352783,333.885223 1021.678955,334.071259 1029.999390,333.958191 
	C1032.588623,333.923035 1033.387695,334.906525 1034.290649,337.389465 
	C1038.202393,348.146332 1038.377075,348.084717 1047.687866,347.981110 
	C1047.972534,347.977936 1048.255737,347.839447 1048.830444,347.686798 
	C1040.661743,329.697083 1032.343750,311.840454 1024.501831,293.777222 
	C1022.585083,289.362274 1019.842102,288.949371 1015.799988,288.876953 
	C1011.454590,288.799133 1011.280518,292.334412 1010.216187,294.631195 
	C1005.102173,305.666351 1000.374878,316.880341 995.478455,328.016846 
	C992.613281,334.533386 989.688477,341.023682 986.711243,347.703552 
	C990.511475,347.703552 993.648376,347.703552 997.008728,346.871002 
M1141.412598,333.999420 
	C1150.153198,333.998505 1150.483765,333.880371 1153.434814,342.137054 
	C1155.147705,346.929901 1157.647827,348.988403 1162.627319,348.026672 
	C1163.579590,347.842743 1164.597900,348.000305 1165.860840,348.000305 
	C1165.002563,345.831146 1164.311279,343.861572 1163.458252,341.964691 
	C1158.543213,331.035645 1153.565552,320.134857 1148.660156,309.201630 
	C1146.037842,303.356812 1143.435059,297.500488 1140.979736,291.584473 
	C1139.264526,287.451385 1135.764404,289.151550 1132.990112,289.151184 
	C1131.675049,289.151001 1129.715088,290.455780 1129.147217,291.679749 
	C1124.837280,300.968628 1120.862061,310.412018 1116.659790,319.751984 
	C1112.480103,329.041382 1108.157715,338.266449 1103.677124,347.999298 
	C1106.377808,347.999298 1108.566284,348.288544 1110.627808,347.901611 
	C1112.098389,347.625610 1113.991577,346.773926 1114.653931,345.594055 
	C1116.122192,342.978210 1117.039429,340.028503 1117.981201,337.149475 
	C1118.724609,334.877441 1119.848022,333.831543 1122.463379,333.929352 
	C1128.446045,334.153015 1134.442749,333.999634 1141.412598,333.999420 
M784.999817,314.500000 
	C784.999817,306.403107 784.999817,298.306183 784.999817,290.289551 
	C778.020203,290.289551 771.615295,290.289551 765.287659,290.289551 
	C765.287659,309.647339 765.287659,328.714111 765.287659,347.711151 
	C771.982971,347.711151 778.387939,347.711151 784.999817,347.711151 
	C784.999817,336.782074 784.999817,326.141022 784.999817,314.500000 
M948.031921,335.706726 
	C943.533691,339.823486 943.981323,341.069763 949.189819,345.109344 
	C954.958557,349.583557 961.515381,350.192505 967.789612,348.480194 
	C977.774353,345.755157 980.174622,341.427032 980.828552,330.275970 
	C981.568542,317.656555 981.008606,304.960327 980.982788,292.297577 
	C980.980530,291.209351 980.744934,290.121552 980.613953,289.001068 
	C975.447388,289.001068 970.617493,289.001068 965.787598,289.001068 
	C960.870728,289.001068 955.953857,289.001068 951.179443,289.001068 
	C951.179443,292.007843 951.179443,294.296875 951.179443,297.155701 
	C958.215637,297.155701 965.093323,297.155701 971.999756,297.155701 
	C971.999756,307.392944 972.457031,317.087769 971.785583,326.703766 
	C971.497681,330.826782 972.565002,335.861023 967.905518,339.068268 
	C962.143005,343.034637 955.542969,340.185425 951.054810,335.486664 
	C950.566650,334.975647 949.324707,335.184631 948.031921,335.706726 
M1267.651855,286.861023 
	C1256.721924,289.582489 1252.869873,301.585663 1255.303711,310.305206 
	C1258.416992,321.458466 1271.331421,326.810760 1281.985107,321.883301 
	C1288.477539,318.880463 1292.712524,313.588318 1292.971069,306.021942 
	C1293.241455,298.114288 1290.744873,291.169861 1282.981689,288.203979 
	C1278.474731,286.482147 1273.179077,286.825043 1267.651855,286.861023 
z"/>
<path fill="#FFFFFF" opacity="1.000000" stroke="none" 
	d="
M1841.000000,249.531342 
	C1823.339478,249.999908 1805.678589,249.946548 1788.018677,250.049362 
	C1784.875122,250.067657 1782.907104,249.378052 1780.795654,246.543625 
	C1769.621216,231.543182 1757.934937,216.925385 1746.593628,202.047379 
	C1738.917358,191.977631 1731.611694,181.625931 1723.969238,171.529846 
	C1715.057373,159.756821 1705.961304,148.123260 1696.940308,136.433014 
	C1693.811646,132.378632 1690.668091,128.335663 1687.035400,123.647362 
	C1687.035400,166.144608 1687.035400,207.743439 1687.035400,249.670807 
	C1665.800293,249.670807 1644.732544,249.670807 1623.226196,249.670807 
	C1623.159668,248.468430 1623.011963,247.043030 1623.011719,245.617599 
	C1623.000122,171.976517 1623.047974,98.335320 1622.892700,24.694557 
	C1622.882690,19.922426 1624.331177,18.826923 1628.858521,18.899883 
	C1645.015381,19.160250 1661.193726,19.393789 1677.332275,18.791430 
	C1683.074585,18.577097 1685.200806,22.294548 1687.650513,25.437305 
	C1698.928101,39.905312 1709.845337,54.655178 1720.827759,69.351715 
	C1729.352051,80.758774 1737.702515,92.296295 1746.275146,103.666595 
	C1756.039795,116.618172 1765.968262,129.446152 1775.815552,142.335464 
	C1776.656250,143.435883 1777.421631,144.593872 1779.000000,146.824509 
	C1779.000000,144.050644 1779.000000,142.489441 1779.000000,140.928238 
	C1779.000244,102.108383 1779.073242,63.288216 1778.901978,24.469118 
	C1778.882202,19.980387 1780.262695,18.857059 1784.583862,18.908237 
	C1803.074585,19.127226 1821.569458,19.001593 1840.531372,19.000813 
	C1841.000000,95.687561 1841.000000,172.375122 1841.000000,249.531342 
z"/>
<path fill="#FEFCFC" opacity="1.000000" stroke="none" 
	d="
M200.531342,1.000001 
	C201.822037,1.664970 202.582611,2.808238 203.475372,2.922974 
	C216.327179,4.574676 228.742981,7.894876 240.515045,13.231339 
	C249.987198,17.525223 259.712769,21.639824 268.329712,27.339977 
	C278.067474,33.781593 286.816101,41.759251 295.773834,49.330444 
	C311.631470,62.733532 323.101013,79.674820 332.232666,97.981560 
	C339.963257,113.479500 346.221680,129.857224 347.855591,147.304550 
	C349.253113,162.227249 350.375336,177.317612 349.732391,192.252594 
	C348.974487,209.857056 343.488525,226.627258 337.129944,243.116653 
	C331.501831,257.711792 323.471466,270.933838 314.059082,283.040802 
	C302.241028,298.242035 288.258636,311.395294 271.932190,322.203949 
	C251.888443,335.473572 230.150253,343.865570 206.907623,348.975525 
	C204.747604,349.450348 202.569107,349.841278 200.699600,350.635590 
	C183.645767,351.000000 166.291550,351.000000 148.768005,350.641174 
	C147.931610,349.861786 147.315018,349.219971 146.589722,349.054352 
	C137.961197,347.084320 129.063141,345.931732 120.731354,343.104370 
	C105.662018,337.990662 91.520294,330.982178 78.004852,322.231262 
	C56.148575,308.079895 38.700809,289.806122 25.244011,268.014496 
	C14.368289,250.402573 6.153215,231.293060 2.912848,210.476715 
	C2.822950,209.899200 1.661687,209.488480 1.000002,209.000000 
	C1.000000,187.312439 1.000000,165.624878 1.350536,143.766998 
	C2.119278,143.102402 2.820507,142.656754 2.914957,142.106873 
	C6.952972,118.597511 16.306234,97.340698 29.722202,77.711182 
	C38.345303,65.094315 47.986645,53.529243 59.735081,43.602108 
	C73.172409,32.247910 87.639091,22.827192 103.697968,15.576914 
	C117.452263,9.367105 131.592331,4.943562 146.521942,2.908292 
	C147.090775,2.830746 147.510696,1.660866 148.000000,1.000000 
	C165.354233,1.000000 182.708450,1.000000 200.531342,1.000001 
M336.253571,204.769730 
	C337.107574,197.706177 338.419586,190.663055 338.736084,183.575500 
	C340.082550,153.421234 333.664398,124.983414 319.314117,98.348953 
	C302.613007,67.351372 278.595764,43.572266 246.901810,28.612343 
	C196.887344,5.004944 146.693863,5.773733 97.461052,31.523594 
	C66.263763,47.840477 42.633183,72.154625 27.655996,103.863228 
	C4.035650,153.870514 4.284141,204.316269 30.545143,253.253036 
	C57.087879,302.714813 99.149811,331.940704 154.804062,338.610229 
	C214.721649,345.790619 264.535492,324.716797 303.090271,278.218231 
	C320.578186,257.127075 331.344452,232.656036 336.253571,204.769730 
z"/>
<path fill="#000000" opacity="1.000000" stroke="none" 
	d="
M147.531342,1.000000 
	C147.510696,1.660866 147.090775,2.830746 146.521942,2.908292 
	C131.592331,4.943562 117.452263,9.367105 103.697968,15.576914 
	C87.639091,22.827192 73.172409,32.247910 59.735081,43.602108 
	C47.986645,53.529243 38.345303,65.094315 29.722202,77.711182 
	C16.306234,97.340698 6.952972,118.597511 2.914957,142.106873 
	C2.820507,142.656754 2.119278,143.102402 1.350536,143.298340 
	C1.000000,95.738403 1.000000,48.476814 1.000000,1.000000 
	C49.687351,1.000000 98.375015,1.000000 147.531342,1.000000 
z"/>
<path fill="#000000" opacity="1.000000" stroke="none" 
	d="
M1.000002,209.468658 
	C1.661687,209.488480 2.822950,209.899200 2.912848,210.476715 
	C6.153215,231.293060 14.368289,250.402573 25.244011,268.014496 
	C38.700809,289.806122 56.148575,308.079895 78.004852,322.231262 
	C91.520294,330.982178 105.662018,337.990662 120.731354,343.104370 
	C129.063141,345.931732 137.961197,347.084320 146.589722,349.054352 
	C147.315018,349.219971 147.931610,349.861786 148.299347,350.641174 
	C99.074265,351.000000 50.148533,351.000000 1.000000,351.000000 
	C1.000000,303.979340 1.000000,256.958344 1.000002,209.468658 
z"/>
<path fill="#FFFFFF" opacity="1.000000" stroke="none" 
	d="
M538.000000,249.999741 
	C501.868683,249.999741 466.237366,249.999741 430.247131,249.999741 
	C430.159119,248.402054 430.011444,246.970093 430.011230,245.538101 
	C429.999878,171.907211 430.050049,98.276215 429.889435,24.645672 
	C429.878845,19.798502 431.464325,18.887203 435.904999,18.908073 
	C471.386993,19.074825 506.879059,18.531689 542.348877,19.208591 
	C558.987610,19.526125 575.814148,20.315035 591.677917,26.902754 
	C606.744019,33.159248 620.647766,40.849426 627.718079,56.474033 
	C636.241699,75.310234 633.234802,96.914879 619.605530,112.412682 
	C613.393433,119.476555 605.267029,125.016396 594.525635,127.257309 
	C608.812500,131.104187 620.453064,137.394821 628.442200,148.996155 
	C634.249084,157.428574 637.842285,166.610428 639.251282,177.007339 
	C640.791199,188.370895 639.688782,199.065460 634.900391,209.244308 
	C627.122192,225.778793 613.584290,235.495331 596.809631,242.244476 
	C577.840637,249.876526 558.301636,250.219070 538.000000,249.999741 
M565.082397,167.569351 
	C562.821899,162.424072 558.109802,159.993698 553.273193,159.191223 
	C545.085449,157.832718 536.710327,157.365082 528.394775,157.077896 
	C518.659119,156.741684 508.902924,156.999252 499.299408,156.999252 
	C499.299408,171.021454 499.299408,184.416473 499.299408,197.999969 
	C515.226868,197.999969 530.898743,198.726822 546.472900,197.803818 
	C563.417969,196.799545 572.644775,182.712860 565.082397,167.569351 
M541.214539,110.000771 
	C545.256104,108.644913 549.631836,107.874718 553.264343,105.801933 
	C559.384827,102.309471 563.415100,92.513016 561.911011,86.779549 
	C560.017883,79.563065 552.493469,72.314400 545.198608,72.124001 
	C529.931152,71.725510 514.645996,72.003227 499.209839,72.003227 
	C499.209839,84.823608 499.209839,97.225204 499.209839,110.000748 
	C513.034729,110.000748 526.653259,110.000748 541.214539,110.000771 
z"/>
<path fill="#FFFFFF" opacity="1.000000" stroke="none" 
	d="
M1273.258545,229.756134 
	C1265.922974,223.087769 1258.060669,217.344147 1251.962036,210.112961 
	C1242.379272,198.750793 1234.341309,186.067017 1230.919678,171.340439 
	C1228.582153,161.279816 1227.260620,150.944138 1226.078247,140.663208 
	C1224.272339,124.962448 1226.719116,109.634415 1232.037598,94.860252 
	C1243.184448,63.895119 1264.094482,41.826256 1294.390259,29.171152 
	C1304.806641,24.820038 1315.822144,20.737020 1326.904663,19.437437 
	C1341.205322,17.760487 1355.859131,18.649969 1370.340210,19.097200 
	C1381.530029,19.442780 1392.243530,22.604057 1402.575317,26.931923 
	C1415.573242,32.376549 1427.528564,39.304623 1438.353394,48.577492 
	C1449.587891,58.201439 1458.296753,69.576447 1464.718506,82.588455 
	C1471.082031,95.482086 1474.467041,109.331825 1476.152832,123.759399 
	C1478.991577,148.055664 1473.342529,170.569748 1462.445679,191.750198 
	C1453.271362,209.582840 1439.309570,223.599152 1422.046509,233.928391 
	C1407.758667,242.477417 1392.630493,249.309616 1375.819946,250.904266 
	C1363.539307,252.069214 1351.122803,253.370224 1338.855957,252.775177 
	C1316.241211,251.678207 1295.380737,244.240875 1276.358032,231.854675 
	C1275.413696,231.239792 1274.467896,230.627411 1273.258545,229.756134 
M1405.004395,143.630280 
	C1405.003296,137.634750 1405.092163,131.637558 1404.981201,125.644058 
	C1404.794556,115.567726 1400.482544,106.698914 1395.030884,98.818123 
	C1384.111816,83.033890 1368.884888,75.063744 1349.190796,75.911133 
	C1331.607910,76.667679 1317.947876,84.403084 1308.070801,98.427391 
	C1297.499023,113.437744 1293.231323,129.900299 1297.826538,148.458481 
	C1301.247070,162.272354 1307.037842,174.004440 1318.379761,183.060440 
	C1326.737915,189.733932 1335.947266,193.969803 1346.399048,194.901840 
	C1365.471436,196.602615 1381.335571,189.771332 1392.799927,174.459198 
	C1399.343140,165.719925 1404.648193,156.023682 1405.004395,143.630280 
z"/>
<path fill="#FFFFFF" opacity="1.000000" stroke="none" 
	d="
M995.194885,96.484108 
	C999.540039,87.615402 1002.858643,78.546188 1008.067627,70.738014 
	C1020.012146,52.833183 1035.813232,39.082386 1055.578125,29.974438 
	C1068.143921,24.183905 1081.126099,20.116989 1094.892090,19.084702 
	C1105.103760,18.318947 1115.449829,17.401691 1125.599731,18.227568 
	C1139.532104,19.361212 1153.292114,22.191380 1165.876221,28.966524 
	C1173.492920,33.067360 1181.586792,36.411297 1188.771973,41.148472 
	C1196.248047,46.077393 1202.888550,52.273632 1210.122925,58.099766 
	C1195.993652,74.783455 1182.805176,90.356316 1170.332153,105.084305 
	C1162.011597,98.068451 1154.369507,90.220177 1145.373535,84.501831 
	C1138.669434,80.240257 1130.383423,77.995590 1122.496216,76.184814 
	C1112.355103,73.856552 1102.416870,75.905655 1092.710938,79.875076 
	C1084.614136,83.186432 1078.610840,88.953247 1073.390747,95.354584 
	C1060.489624,111.175316 1058.697754,129.663040 1062.520264,148.961014 
	C1065.821411,165.627182 1075.277710,178.265976 1090.089478,186.315079 
	C1095.576416,189.296829 1102.097412,190.983643 1108.342651,191.850891 
	C1129.101196,194.733505 1145.779785,185.180496 1161.344116,173.060440 
	C1163.963623,171.020584 1165.950562,168.168365 1169.388184,164.432587 
	C1172.816528,168.391068 1175.753418,171.966446 1178.884521,175.362778 
	C1187.834717,185.070908 1196.721558,194.845139 1205.942627,204.291489 
	C1208.981445,207.404602 1209.785156,209.139725 1206.126099,212.533234 
	C1192.232056,225.418839 1176.731567,235.508820 1159.327393,243.161606 
	C1140.148926,251.594498 1120.198608,254.144547 1099.707642,252.876541 
	C1076.893677,251.464767 1055.684448,244.090286 1037.374634,230.506607 
	C1020.000244,217.617035 1006.919617,201.175323 998.479980,180.576630 
	C990.639404,161.439911 989.280151,141.936066 990.216003,121.999847 
	C990.612122,113.561981 993.352173,105.234154 995.194885,96.484108 
z"/>
<path fill="#FFFFFF" opacity="1.000000" stroke="none" 
	d="
M912.999512,84.037697 
	C912.999573,139.502136 912.999573,194.470642 912.999573,249.719269 
	C889.698792,249.719269 866.628906,249.719269 843.164185,249.719269 
	C843.164185,191.697617 843.164185,133.630249 843.164185,75.163818 
	C825.038269,75.163818 807.297791,75.163818 789.281128,75.163818 
	C789.281128,56.696621 789.281128,38.626228 789.281128,20.277416 
	C848.307495,20.277416 907.373413,20.277416 966.719604,20.277416 
	C966.719604,38.305099 966.719604,56.375515 966.719604,74.846603 
	C949.025085,74.846603 931.284485,74.846603 912.999390,74.846603 
	C912.999390,77.995964 912.999390,80.768860 912.999512,84.037697 
z"/>
<path fill="#FFFFFF" opacity="1.000000" stroke="none" 
	d="
M691.019531,19.001694 
	C709.014343,19.001659 726.512085,19.071810 744.008240,18.941736 
	C747.467102,18.916019 749.080994,19.565493 749.075378,23.562809 
	C748.970215,98.383835 748.997314,173.205048 748.989258,248.026215 
	C748.989197,248.502716 748.884338,248.979218 748.796814,249.724380 
	C726.021606,249.724380 703.285583,249.724380 680.274292,249.724380 
	C680.274292,173.024582 680.274292,96.295135 680.274292,19.001673 
	C683.644592,19.001673 687.083191,19.001673 691.019531,19.001694 
z"/>
<path fill="#FFFFFF" opacity="1.000000" stroke="none" 
	d="
M1582.999023,227.999908 
	C1582.999146,235.476364 1582.999146,242.452835 1582.999146,249.713821 
	C1560.042725,249.713821 1537.306763,249.713821 1514.234497,249.713821 
	C1514.160156,248.526535 1514.011108,247.255875 1514.010986,245.985168 
	C1513.999878,172.164597 1514.038086,98.343948 1513.908936,24.523596 
	C1513.901245,20.116468 1515.128052,18.858334 1519.531006,18.904024 
	C1540.500366,19.121634 1561.473145,19.001431 1582.999023,19.001431 
	C1582.999023,88.660057 1582.999023,158.080002 1582.999023,227.999908 
z"/>
<path fill="#FFFFFF" opacity="1.000000" stroke="none" 
	d="
M496.999054,333.993713 
	C496.999054,338.803101 496.999054,343.114136 496.999054,347.711853 
	C491.049072,347.711853 485.310608,347.711853 479.223511,347.711853 
	C479.223511,339.023834 479.223511,330.259766 479.223511,320.305603 
	C476.187958,327.529358 473.268921,333.502808 471.235596,339.763855 
	C470.345764,342.503876 469.232422,342.988129 466.812500,343.037445 
	C457.962158,343.217743 457.944946,343.284515 454.582062,335.064667 
	C453.491394,332.398804 452.528717,329.680725 451.500397,326.989227 
	C450.547302,324.494568 449.584808,322.003540 448.134735,318.232208 
	C448.134735,328.849640 448.134735,338.155579 448.134735,347.727539 
	C442.352478,347.727539 436.947601,347.727539 431.269257,347.727539 
	C431.269257,328.676819 431.269257,309.607056 431.269257,290.268005 
	C438.013794,290.268005 444.773010,290.268005 451.748352,290.268005 
	C455.671448,299.298187 459.656769,308.471588 463.990143,318.446136 
	C467.971710,308.741577 471.770721,299.481964 475.616241,290.108978 
	C482.489960,290.108978 489.456329,290.108978 496.999054,290.108978 
	C496.999054,304.638672 496.999054,319.066986 496.999054,333.993713 
z"/>
<path fill="#FFFFFF" opacity="1.000000" stroke="none" 
	d="
M808.665649,290.000336 
	C814.266663,289.598389 815.544189,294.244812 817.920410,297.120514 
	C823.217285,303.530884 828.068298,310.309692 833.861450,317.939972 
	C833.861450,307.913239 833.861450,299.325348 833.861450,290.368958 
	C839.900391,290.368958 845.752014,290.368958 851.805176,290.368958 
	C851.805176,309.459656 851.805176,328.513245 851.805176,347.999969 
	C846.871643,347.999969 842.078003,348.208649 837.321411,347.879700 
	C835.787170,347.773590 833.913940,346.589752 832.940735,345.325439 
	C826.830017,337.387146 820.929565,329.286957 814.354614,320.424957 
	C814.354614,329.991638 814.354614,338.637177 814.354614,347.640350 
	C807.877502,347.640350 801.804077,347.640350 795.364319,347.640350 
	C795.364319,328.764862 795.364319,309.592896 795.364319,290.000214 
	C799.646301,290.000214 803.928589,290.000214 808.665649,290.000336 
z"/>
<path fill="#FFFFFF" opacity="1.000000" stroke="none" 
	d="
M883.002075,307.057373 
	C882.792725,309.741821 882.956177,311.191803 886.024353,311.084473 
	C893.490173,310.823395 900.971313,310.999451 908.721863,310.999451 
	C908.721863,316.303009 908.721863,321.375092 908.721863,326.856506 
	C900.354553,326.856506 891.940430,326.856506 883.266479,326.856506 
	C883.266479,328.991730 883.266479,330.730530 883.266479,332.861572 
	C892.945129,332.861572 902.701660,332.861572 912.725647,332.861572 
	C912.725647,337.978088 912.725647,342.717377 912.725647,347.731140 
	C896.009338,347.731140 879.271667,347.731140 862.266724,347.731140 
	C862.266724,328.668915 862.266724,309.598694 862.266724,290.263550 
	C878.670288,290.263550 895.074219,290.263550 911.739380,290.263550 
	C911.739380,295.006195 911.739380,299.745026 911.739380,304.999725 
	C903.453064,304.999725 895.179077,304.930695 886.908691,305.070740 
	C885.599060,305.092926 884.305359,306.057922 883.002075,307.057373 
z"/>
<path fill="#FFFFFF" opacity="1.000000" stroke="none" 
	d="
M647.734497,311.670471 
	C650.545837,304.800568 653.036011,298.219635 655.814514,291.762756 
	C656.201721,290.862885 657.994263,290.111298 659.158386,290.078735 
	C665.146606,289.911377 671.142029,290.001190 677.301086,290.001190 
	C685.147827,309.175659 692.991699,328.342987 700.940735,347.767487 
	C693.699646,347.767487 686.618530,347.767487 679.527222,347.767487 
	C676.971313,340.000000 676.971313,340.000031 668.682983,339.999969 
	C666.517700,339.999969 664.326416,340.213715 662.192444,339.955048 
	C657.739075,339.415253 654.637329,340.399231 653.877136,345.506653 
	C653.735229,346.459991 652.023499,347.831329 650.976807,347.886780 
	C646.160034,348.142120 641.322144,348.013397 636.491943,347.989502 
	C635.376343,347.983978 634.261414,347.848663 632.327148,347.717560 
	C637.516052,335.506195 642.510498,323.752533 647.734497,311.670471 
M664.476746,316.019012 
	C663.410522,318.938293 662.344299,321.857574 661.272034,324.793518 
	C664.670532,324.793518 667.759705,324.793518 671.330444,324.793518 
	C669.648071,320.110474 668.085083,315.759644 666.343994,310.912964 
	C665.789795,312.702118 665.374146,314.043915 664.476746,316.019012 
z"/>
<path fill="#FFFFFF" opacity="1.000000" stroke="none" 
	d="
M523.689331,345.707703 
	C522.150330,346.705597 520.896667,347.863983 519.602478,347.911011 
	C513.948853,348.116455 508.283417,347.999390 501.888397,347.999390 
	C510.113251,328.543945 518.195190,309.426483 526.407410,290.001007 
	C532.389648,290.001007 538.532837,289.919922 544.669983,290.075745 
	C545.775269,290.103821 547.501221,290.842651 547.852661,291.699524 
	C555.322876,309.913330 562.639404,328.190216 569.963440,346.463776 
	C570.070679,346.731445 569.894653,347.112701 569.776306,347.999084 
	C563.608398,347.999084 557.273621,348.577576 551.158752,347.671631 
	C549.137695,347.372192 547.683899,343.244690 545.459839,340.158569 
	C539.764526,340.158569 532.792175,340.158569 525.400024,340.158569 
	C524.955139,341.760101 524.455566,343.558411 523.689331,345.707703 
M534.998413,313.619019 
	C533.639771,317.280334 532.281128,320.941681 530.882751,324.710205 
	C534.468140,324.710205 537.656555,324.710205 540.885620,324.710205 
	C539.317810,320.087158 537.844788,315.743774 536.288513,311.154663 
	C535.788147,311.817413 535.406860,312.322418 534.998413,313.619019 
z"/>
<path fill="#FFFFFF" opacity="1.000000" stroke="none" 
	d="
M727.000000,290.000031 
	C737.134460,290.000061 746.768982,290.000061 756.567383,290.000061 
	C757.876526,297.304169 756.750977,303.199921 751.086426,308.715607 
	C743.963013,315.651764 737.929199,323.706818 731.122192,331.631775 
	C739.626953,331.631775 747.948853,331.631775 756.634277,331.631775 
	C756.634277,337.236725 756.634277,342.423248 756.634277,347.808960 
	C738.867493,347.808960 721.145020,347.808960 703.645935,347.808960 
	C700.409180,338.380768 705.615356,332.275543 711.299194,326.102448 
	C717.352295,319.528198 722.986328,312.568085 729.325745,305.166565 
	C720.572754,305.166565 712.561401,305.166565 704.279419,305.166565 
	C704.279419,300.032654 704.279419,295.297882 704.279419,290.000000 
	C711.648499,290.000000 719.074219,290.000000 727.000000,290.000031 
z"/>
<path fill="#FFFFFF" opacity="1.000000" stroke="none" 
	d="
M573.185913,330.517334 
	C569.610229,320.411072 570.228638,311.084381 575.973022,302.326691 
	C582.312500,292.661835 598.597717,286.192169 609.693176,289.395020 
	C615.462402,291.060394 621.007080,293.572205 626.536926,295.969727 
	C629.424622,297.221680 629.502014,299.053406 627.159485,301.442474 
	C623.980347,304.684845 621.204956,308.322998 618.979309,310.940979 
	C613.801575,309.237946 608.958618,307.288055 603.937744,306.073914 
	C595.586914,304.054504 589.606995,314.883362 592.614990,323.060516 
	C595.517151,330.950134 600.390442,333.230347 607.476257,331.309204 
	C610.410950,330.513489 611.171509,329.283356 611.034668,326.592133 
	C610.883179,323.613281 611.000061,320.620789 611.000061,317.317505 
	C616.541992,317.317505 621.951477,317.317505 627.992371,317.317505 
	C627.992371,324.899109 628.034180,332.655334 627.931519,340.409637 
	C627.920532,341.239899 627.264465,342.315460 626.575378,342.844513 
	C617.538025,349.782990 593.615112,350.665741 584.633606,343.689453 
	C580.220825,340.261902 577.075867,335.202209 573.185913,330.517334 
z"/>
<path fill="#FEFFFE" opacity="1.000000" stroke="none" 
	d="
M1188.712158,313.215271 
	C1186.827881,310.802917 1185.208008,308.638733 1183.206787,305.965057 
	C1183.206787,320.096619 1183.206787,333.747070 1183.206787,347.697144 
	C1180.082031,347.697144 1177.344604,347.697144 1174.299927,347.697144 
	C1174.299927,328.314575 1174.299927,308.792053 1174.299927,289.545746 
	C1181.413940,286.446716 1184.227539,292.204193 1187.408203,296.067963 
	C1195.961914,306.458862 1204.067139,317.219299 1212.341431,327.839905 
	C1213.318726,329.094208 1214.241211,330.391113 1215.694580,332.349335 
	C1215.694580,317.645477 1215.694580,303.672241 1215.694580,289.350952 
	C1218.831909,289.350952 1221.571289,289.350952 1224.657715,289.350952 
	C1224.657715,308.583801 1224.657715,328.100037 1224.657715,347.543823 
	C1216.324463,350.696167 1213.822388,343.786499 1210.017578,339.152191 
	C1202.994019,330.597351 1195.989136,322.027222 1188.712158,313.215271 
z"/>
<path fill="#FFFFFE" opacity="1.000000" stroke="none" 
	d="
M1103.992188,304.338104 
	C1106.560547,311.218842 1104.191528,316.660278 1100.604614,321.956665 
	C1095.697754,329.202332 1088.236450,330.597504 1080.364136,330.960785 
	C1075.748291,331.173798 1071.114624,330.999664 1066.104248,330.999664 
	C1066.104248,336.686279 1066.104248,342.095367 1066.104248,347.745667 
	C1062.655884,347.745667 1059.587769,347.745667 1056.256958,347.745667 
	C1056.256958,328.357727 1056.256958,308.977448 1056.256958,288.568848 
	C1067.186890,289.052979 1078.211548,288.976807 1089.086548,290.215057 
	C1096.747192,291.087311 1101.184937,296.975891 1103.992188,304.338104 
M1076.467773,321.999908 
	C1078.797363,321.999725 1081.132324,322.102295 1083.455322,321.979187 
	C1089.407471,321.663757 1094.542358,317.580200 1094.992554,312.848602 
	C1095.808350,304.277039 1093.361816,300.341675 1086.570679,298.475708 
	C1080.117310,296.702423 1073.057007,297.137665 1066.287354,296.603699 
	C1066.287354,305.661835 1066.287354,313.725983 1066.287354,321.999939 
	C1069.546997,321.999939 1072.520508,321.999939 1076.467773,321.999908 
z"/>
<path fill="#FFFFFE" opacity="1.000000" stroke="none" 
	d="
M996.896973,347.287292 
	C993.648376,347.703552 990.511475,347.703552 986.711243,347.703552 
	C989.688477,341.023682 992.613281,334.533386 995.478455,328.016846 
	C1000.374878,316.880341 1005.102173,305.666351 1010.216187,294.631195 
	C1011.280518,292.334412 1011.454590,288.799133 1015.799988,288.876953 
	C1019.842102,288.949371 1022.585083,289.362274 1024.501831,293.777222 
	C1032.343750,311.840454 1040.661743,329.697083 1048.830444,347.686798 
	C1048.255737,347.839447 1047.972534,347.977936 1047.687866,347.981110 
	C1038.377075,348.084717 1038.202393,348.146332 1034.290649,337.389465 
	C1033.387695,334.906525 1032.588623,333.923035 1029.999390,333.958191 
	C1021.678955,334.071259 1013.352783,333.885223 1005.037170,334.115692 
	C1003.686646,334.153107 1001.793213,335.419189 1001.164062,336.639709 
	C999.484192,339.898224 998.356079,343.441101 996.896973,347.287292 
M1012.960510,310.434509 
	C1010.739075,315.547028 1008.517578,320.659515 1006.289062,325.788361 
	C1013.845703,325.788361 1021.190247,325.788361 1028.893066,325.788361 
	C1025.142456,316.988434 1021.525208,308.501434 1017.708435,299.546265 
	C1015.968140,303.307465 1014.501160,306.477936 1012.960510,310.434509 
z"/>
<path fill="#FFFFFE" opacity="1.000000" stroke="none" 
	d="
M1140.923218,333.999390 
	C1134.442749,333.999634 1128.446045,334.153015 1122.463379,333.929352 
	C1119.848022,333.831543 1118.724609,334.877441 1117.981201,337.149475 
	C1117.039429,340.028503 1116.122192,342.978210 1114.653931,345.594055 
	C1113.991577,346.773926 1112.098389,347.625610 1110.627808,347.901611 
	C1108.566284,348.288544 1106.377808,347.999298 1103.677124,347.999298 
	C1108.157715,338.266449 1112.480103,329.041382 1116.659790,319.751984 
	C1120.862061,310.412018 1124.837280,300.968628 1129.147217,291.679749 
	C1129.715088,290.455780 1131.675049,289.151001 1132.990112,289.151184 
	C1135.764404,289.151550 1139.264526,287.451385 1140.979736,291.584473 
	C1143.435059,297.500488 1146.037842,303.356812 1148.660156,309.201630 
	C1153.565552,320.134857 1158.543213,331.035645 1163.458252,341.964691 
	C1164.311279,343.861572 1165.002563,345.831146 1165.860840,348.000305 
	C1164.597900,348.000305 1163.579590,347.842743 1162.627319,348.026672 
	C1157.647827,348.988403 1155.147705,346.929901 1153.434814,342.137054 
	C1150.483765,333.880371 1150.153198,333.998505 1140.923218,333.999390 
M1124.018188,324.856689 
	C1124.774048,325.237549 1125.525879,325.939301 1126.286499,325.949066 
	C1133.026855,326.035492 1139.768677,325.999268 1146.894531,325.999268 
	C1142.807617,317.100616 1138.882568,308.554504 1134.783081,299.628448 
	C1130.974976,308.251556 1127.496948,316.126953 1124.018188,324.856689 
z"/>
<path fill="#FFFFFF" opacity="1.000000" stroke="none" 
	d="
M784.999817,315.000000 
	C784.999817,326.141022 784.999817,336.782074 784.999817,347.711151 
	C778.387939,347.711151 771.982971,347.711151 765.287659,347.711151 
	C765.287659,328.714111 765.287659,309.647339 765.287659,290.289551 
	C771.615295,290.289551 778.020203,290.289551 784.999817,290.289551 
	C784.999817,298.306183 784.999817,306.403107 784.999817,315.000000 
z"/>
<path fill="#FFFFFE" opacity="1.000000" stroke="none" 
	d="
M948.232178,335.383179 
	C949.324707,335.184631 950.566650,334.975647 951.054810,335.486664 
	C955.542969,340.185425 962.143005,343.034637 967.905518,339.068268 
	C972.565002,335.861023 971.497681,330.826782 971.785583,326.703766 
	C972.457031,317.087769 971.999756,307.392944 971.999756,297.155701 
	C965.093323,297.155701 958.215637,297.155701 951.179443,297.155701 
	C951.179443,294.296875 951.179443,292.007843 951.179443,289.001068 
	C955.953857,289.001068 960.870728,289.001068 965.787598,289.001068 
	C970.617493,289.001068 975.447388,289.001068 980.613953,289.001068 
	C980.744934,290.121552 980.980530,291.209351 980.982788,292.297577 
	C981.008606,304.960327 981.568542,317.656555 980.828552,330.275970 
	C980.174622,341.427032 977.774353,345.755157 967.789612,348.480194 
	C961.515381,350.192505 954.958557,349.583557 949.189819,345.109344 
	C943.981323,341.069763 943.533691,339.823486 948.232178,335.383179 
z"/>
<path fill="#FFFEFE" opacity="1.000000" stroke="none" 
	d="
M1267.945068,286.549927 
	C1273.179077,286.825043 1278.474731,286.482147 1282.981689,288.203979 
	C1290.744873,291.169861 1293.241455,298.114288 1292.971069,306.021942 
	C1292.712524,313.588318 1288.477539,318.880463 1281.985107,321.883301 
	C1271.331421,326.810760 1258.416992,321.458466 1255.303711,310.305206 
	C1252.869873,301.585663 1256.721924,289.582489 1267.945068,286.549927 
M1284.320312,313.112823 
	C1288.075195,308.313477 1287.921509,299.946167 1284.294189,295.743134 
	C1279.024414,289.637024 1271.083252,289.289612 1264.899292,294.663452 
	C1258.213501,300.327881 1258.969238,309.296143 1265.258789,314.856750 
	C1270.868896,319.816528 1278.223999,319.525330 1284.320312,313.112823 
z"/>
<path fill="#BC022F" opacity="1.000000" stroke="none" 
	d="
M336.198792,205.198288 
	C331.344452,232.656036 320.578186,257.127075 303.090271,278.218231 
	C264.535492,324.716797 214.721649,345.790619 154.804062,338.610229 
	C99.149811,331.940704 57.087879,302.714813 30.545143,253.253036 
	C4.284141,204.316269 4.035650,153.870514 27.655996,103.863228 
	C42.633183,72.154625 66.263763,47.840477 97.461052,31.523594 
	C146.693863,5.773733 196.887344,5.004944 246.901810,28.612343 
	C278.595764,43.572266 302.613007,67.351372 319.314117,98.348953 
	C333.664398,124.983414 340.082550,153.421234 338.736084,183.575500 
	C338.419586,190.663055 337.107574,197.706177 336.198792,205.198288 
M239.184402,127.680893 
	C232.069321,131.240234 225.019669,134.940399 217.807541,138.290833 
	C214.849976,139.664780 213.789597,141.319580 213.807831,144.679459 
	C213.966797,173.965118 213.898331,203.251999 213.910828,232.538513 
	C213.911438,233.970215 214.036591,235.401840 214.139694,237.599579 
	C223.069763,233.221283 231.480133,229.097778 240.539322,224.440765 
	C240.681473,223.970596 240.947617,223.500549 240.948090,223.030243 
	C240.978424,192.155640 241.002731,161.281006 240.934860,130.406555 
	C240.932449,129.305771 239.999741,128.207031 239.184402,127.680893 
M178.173386,210.499969 
	C178.173386,225.238754 178.173386,239.977554 178.173386,255.624237 
	C187.090363,251.140060 195.254486,247.163162 203.238144,242.852005 
	C204.204269,242.330322 204.579178,240.005112 204.582779,238.514221 
	C204.655319,208.529114 204.637527,178.543777 204.612457,148.558502 
	C204.611572,147.494034 204.350006,146.429810 204.150330,144.912445 
	C196.583893,148.722946 189.574585,152.509537 182.333221,155.782715 
	C179.102432,157.243057 178.045700,159.024078 178.089142,162.524017 
	C178.283493,178.180603 178.173523,193.840973 178.173386,210.499969 
M249.469482,212.310120 
	C249.469482,214.718201 249.469482,217.126282 249.469482,220.088699 
	C257.560150,216.135666 264.741394,212.382065 272.143158,209.130508 
	C275.122070,207.821884 275.863098,206.169983 275.852295,203.130234 
	C275.746429,173.344788 275.787537,143.558807 275.786896,113.772980 
	C275.786865,112.670090 275.786896,111.567200 275.786896,109.721458 
	C268.076385,113.530556 261.116882,117.347740 253.837875,120.403946 
	C250.221558,121.922310 249.378494,123.897675 249.395096,127.496292 
	C249.524170,155.451096 249.468826,183.406754 249.469482,212.310120 
M91.062553,190.390274 
	C84.871910,187.318893 78.681259,184.247513 71.963486,180.914612 
	C71.963486,188.690201 72.147186,195.811661 71.881523,202.916321 
	C71.759254,206.186234 72.748436,207.795288 75.779617,209.267853 
	C97.417931,219.779831 118.926933,230.557724 140.492828,241.219147 
	C149.825195,245.832748 159.194901,250.370773 169.163437,255.244171 
	C169.163437,247.548462 168.975021,240.441711 169.246689,233.352585 
	C169.373520,230.042984 168.320496,228.360123 165.309280,226.898911 
	C140.720795,214.967163 116.223824,202.846832 91.062553,190.390274 
M168.111435,192.882690 
	C136.222610,177.123749 104.333786,161.364822 71.969398,145.370865 
	C71.969398,152.515793 72.263420,159.013382 71.869339,165.468979 
	C71.591789,170.015610 72.971535,172.417801 77.260994,174.485153 
	C100.270432,185.574921 123.074898,197.089355 145.977036,208.402710 
	C153.478088,212.108124 161.059769,215.650284 168.814774,219.367874 
	C168.814774,210.280869 168.814774,201.824539 168.111435,192.882690 
M122.438614,160.966446 
	C137.828934,168.626373 153.219238,176.286301 169.162582,184.221466 
	C169.162582,176.403015 168.968475,169.413528 169.247360,162.442963 
	C169.379822,159.131775 168.328873,157.446259 165.324173,155.983093 
	C144.880051,146.027603 124.534531,135.869476 104.163841,125.763344 
	C93.652611,120.548607 83.155060,115.306305 71.966927,109.735703 
	C71.966927,117.787666 72.140022,124.910484 71.888115,132.018250 
	C71.775558,135.194031 72.986481,136.717087 75.728722,138.048294 
	C91.108490,145.514282 106.400154,153.161758 122.438614,160.966446 
M272.051056,235.397675 
	C266.028168,230.615860 259.990051,230.881058 255.358231,236.130890 
	C251.482117,240.524139 251.629196,247.964935 255.672318,252.022186 
	C259.911194,256.275879 267.439880,256.429749 271.948090,252.354813 
	C276.865784,247.909775 277.101044,241.820282 272.051056,235.397675 
z"/>
<path fill="#000000" opacity="1.000000" stroke="none" 
	d="
M565.361511,167.840622 
	C572.644775,182.712860 563.417969,196.799545 546.472900,197.803818 
	C530.898743,198.726822 515.226868,197.999969 499.299408,197.999969 
	C499.299408,184.416473 499.299408,171.021454 499.299408,156.999252 
	C508.902924,156.999252 518.659119,156.741684 528.394775,157.077896 
	C536.710327,157.365082 545.085449,157.832718 553.273193,159.191223 
	C558.109802,159.993698 562.821899,162.424072 565.361511,167.840622 
z"/>
<path fill="#000000" opacity="1.000000" stroke="none" 
	d="
M540.743164,110.000763 
	C526.653259,110.000748 513.034729,110.000748 499.209839,110.000748 
	C499.209839,97.225204 499.209839,84.823608 499.209839,72.003227 
	C514.645996,72.003227 529.931152,71.725510 545.198608,72.124001 
	C552.493469,72.314400 560.017883,79.563065 561.911011,86.779549 
	C563.415100,92.513016 559.384827,102.309471 553.264343,105.801933 
	C549.631836,107.874718 545.256104,108.644913 540.743164,110.000763 
z"/>
<path fill="#000000" opacity="1.000000" stroke="none" 
	d="
M1405.002808,144.086548 
	C1404.648193,156.023682 1399.343140,165.719925 1392.799927,174.459198 
	C1381.335571,189.771332 1365.471436,196.602615 1346.399048,194.901840 
	C1335.947266,193.969803 1326.737915,189.733932 1318.379761,183.060440 
	C1307.037842,174.004440 1301.247070,162.272354 1297.826538,148.458481 
	C1293.231323,129.900299 1297.499023,113.437744 1308.070801,98.427391 
	C1317.947876,84.403084 1331.607910,76.667679 1349.190796,75.911133 
	C1368.884888,75.063744 1384.111816,83.033890 1395.030884,98.818123 
	C1400.482544,106.698914 1404.794556,115.567726 1404.981201,125.644058 
	C1405.092163,131.637558 1405.003296,137.634750 1405.002808,144.086548 
z"/>
<path fill="#000000" opacity="1.000000" stroke="none" 
	d="
M664.717651,315.702362 
	C665.374146,314.043915 665.789795,312.702118 666.343994,310.912964 
	C668.085083,315.759644 669.648071,320.110474 671.330444,324.793518 
	C667.759705,324.793518 664.670532,324.793518 661.272034,324.793518 
	C662.344299,321.857574 663.410522,318.938293 664.717651,315.702362 
z"/>
<path fill="#000000" opacity="1.000000" stroke="none" 
	d="
M535.011963,313.223206 
	C535.406860,312.322418 535.788147,311.817413 536.288513,311.154663 
	C537.844788,315.743774 539.317810,320.087158 540.885620,324.710205 
	C537.656555,324.710205 534.468140,324.710205 530.882751,324.710205 
	C532.281128,320.941681 533.639771,317.280334 535.011963,313.223206 
z"/>
<path fill="#000000" opacity="1.000000" stroke="none" 
	d="
M1075.980957,321.999939 
	C1072.520508,321.999939 1069.546997,321.999939 1066.287354,321.999939 
	C1066.287354,313.725983 1066.287354,305.661835 1066.287354,296.603699 
	C1073.057007,297.137665 1080.117310,296.702423 1086.570679,298.475708 
	C1093.361816,300.341675 1095.808350,304.277039 1094.992554,312.848602 
	C1094.542358,317.580200 1089.407471,321.663757 1083.455322,321.979187 
	C1081.132324,322.102295 1078.797363,321.999725 1075.980957,321.999939 
z"/>
<path fill="#000000" opacity="1.000000" stroke="none" 
	d="
M1012.997314,310.041443 
	C1014.501160,306.477936 1015.968140,303.307465 1017.708435,299.546265 
	C1021.525208,308.501434 1025.142456,316.988434 1028.893066,325.788361 
	C1021.190247,325.788361 1013.845703,325.788361 1006.289062,325.788361 
	C1008.517578,320.659515 1010.739075,315.547028 1012.997314,310.041443 
z"/>
<path fill="#000000" opacity="1.000000" stroke="none" 
	d="
M1124.018555,324.429504 
	C1127.496948,316.126953 1130.974976,308.251556 1134.783081,299.628448 
	C1138.882568,308.554504 1142.807617,317.100616 1146.894531,325.999268 
	C1139.768677,325.999268 1133.026855,326.035492 1126.286499,325.949066 
	C1125.525879,325.939301 1124.774048,325.237549 1124.018555,324.429504 
z"/>
<path fill="#000000" opacity="1.000000" stroke="none" 
	d="
M1283.778564,313.575958 
	C1278.223999,319.525330 1270.868896,319.816528 1265.258789,314.856750 
	C1258.969238,309.296143 1258.213501,300.327881 1265.320557,294.659393 
	C1265.853516,294.795959 1265.965332,294.936584 1266.041260,295.539307 
	C1266.005249,301.573212 1266.005249,307.145050 1266.005249,312.841797 
	C1268.175659,312.841797 1269.931519,312.841797 1270.866211,312.841797 
	C1272.152344,311.092896 1273.069458,309.845825 1273.986572,308.598755 
	C1274.903931,309.949280 1275.821289,311.299774 1276.926392,312.926666 
	C1278.654785,312.926666 1280.786011,312.926666 1283.126343,313.097229 
	C1283.483154,313.370514 1283.630859,313.473236 1283.778564,313.575958 
z"/>
<path fill="#000000" opacity="1.000000" stroke="none" 
	d="
M1265.593262,294.430481 
	C1271.083252,289.289612 1279.024414,289.637024 1284.294189,295.743134 
	C1287.921509,299.946167 1288.075195,308.313477 1284.049438,313.344391 
	C1283.630859,313.473236 1283.483154,313.370514 1283.061035,312.761688 
	C1281.608032,310.588623 1280.429565,308.921722 1279.250977,307.254791 
	C1279.741577,307.306854 1280.232178,307.358887 1280.722778,307.410950 
	C1281.090698,304.446259 1282.308105,301.255035 1281.594604,298.578705 
	C1280.835449,295.731659 1277.835083,294.502136 1274.445557,294.934052 
	C1271.694702,295.284546 1268.869385,295.051514 1266.077148,295.077240 
	C1265.965332,294.936584 1265.853516,294.795959 1265.593262,294.430481 
z"/>
<path fill="#FCF7F9" opacity="1.000000" stroke="none" 
	d="
M178.173401,209.999969 
	C178.173523,193.840973 178.283493,178.180603 178.089142,162.524017 
	C178.045700,159.024078 179.102432,157.243057 182.333221,155.782715 
	C189.574585,152.509537 196.583893,148.722946 204.150330,144.912445 
	C204.350006,146.429810 204.611572,147.494034 204.612457,148.558502 
	C204.637527,178.543777 204.655319,208.529114 204.582779,238.514221 
	C204.579178,240.005112 204.204269,242.330322 203.238144,242.852005 
	C195.254486,247.163162 187.090363,251.140060 178.173386,255.624237 
	C178.173386,239.977554 178.173386,225.238754 178.173401,209.999969 
z"/>
<path fill="#FDFBFC" opacity="1.000000" stroke="none" 
	d="
M249.470001,211.836136 
	C249.468826,183.406754 249.524170,155.451096 249.395096,127.496292 
	C249.378494,123.897675 250.221558,121.922310 253.837875,120.403946 
	C261.116882,117.347740 268.076385,113.530556 275.786896,109.721458 
	C275.786896,111.567200 275.786865,112.670090 275.786896,113.772980 
	C275.787537,143.558807 275.746429,173.344788 275.852295,203.130234 
	C275.863098,206.169983 275.122070,207.821884 272.143158,209.130508 
	C264.741394,212.382065 257.560150,216.135666 249.469482,220.088699 
	C249.469482,217.126282 249.469482,214.718201 249.470001,211.836136 
z"/>
<path fill="#FEFCFC" opacity="1.000000" stroke="none" 
	d="
M91.380791,190.587067 
	C116.223824,202.846832 140.720795,214.967163 165.309280,226.898911 
	C168.320496,228.360123 169.373520,230.042984 169.246689,233.352585 
	C168.975021,240.441711 169.163437,247.548462 169.163437,255.244171 
	C159.194901,250.370773 149.825195,245.832748 140.492828,241.219147 
	C118.926933,230.557724 97.417931,219.779831 75.779617,209.267853 
	C72.748436,207.795288 71.759254,206.186234 71.881523,202.916321 
	C72.147186,195.811661 71.963486,188.690201 71.963486,180.914612 
	C78.681259,184.247513 84.871910,187.318893 91.380791,190.587067 
z"/>
<path fill="#FEFCFD" opacity="1.000000" stroke="none" 
	d="
M168.463104,193.125458 
	C168.814774,201.824539 168.814774,210.280869 168.814774,219.367874 
	C161.059769,215.650284 153.478088,212.108124 145.977036,208.402710 
	C123.074898,197.089355 100.270432,185.574921 77.260994,174.485153 
	C72.971535,172.417801 71.591789,170.015610 71.869339,165.468979 
	C72.263420,159.013382 71.969398,152.515793 71.969398,145.370865 
	C104.333786,161.364822 136.222610,177.123749 168.463104,193.125458 
z"/>
<path fill="#FEFCFC" opacity="1.000000" stroke="none" 
	d="
M122.080261,160.856857 
	C106.400154,153.161758 91.108490,145.514282 75.728722,138.048294 
	C72.986481,136.717087 71.775558,135.194031 71.888115,132.018250 
	C72.140022,124.910484 71.966927,117.787666 71.966927,109.735703 
	C83.155060,115.306305 93.652611,120.548607 104.163841,125.763344 
	C124.534531,135.869476 144.880051,146.027603 165.324173,155.983093 
	C168.328873,157.446259 169.379822,159.131775 169.247360,162.442963 
	C168.968475,169.413528 169.162582,176.403015 169.162582,184.221466 
	C153.219238,176.286301 137.828934,168.626373 122.080261,160.856857 
z"/>
<path fill="#FFFDFE" opacity="1.000000" stroke="none" 
	d="
M239.890503,224.974274 
	C231.480133,229.097778 223.069763,233.221283 214.139694,237.599579 
	C214.036591,235.401840 213.911438,233.970215 213.910828,232.538513 
	C213.898331,203.251999 213.966797,173.965118 213.807831,144.679459 
	C213.789597,141.319580 214.849976,139.664780 217.807541,138.290833 
	C225.019669,134.940399 232.069321,131.240234 239.486511,127.838333 
	C239.822586,160.321945 239.856537,192.648117 239.890503,224.974274 
z"/>
<path fill="#F4E4E9" opacity="1.000000" stroke="none" 
	d="
M272.316650,235.668640 
	C277.101044,241.820282 276.865784,247.909775 271.948090,252.354813 
	C267.439880,256.429749 259.911194,256.275879 255.672318,252.022186 
	C251.629196,247.964935 251.482117,240.524139 255.358231,236.130890 
	C259.990051,230.881058 266.028168,230.615860 272.316650,235.668640 
M270.319733,249.789139 
	C273.359833,246.186707 274.220825,241.900635 270.836365,238.651688 
	C268.706085,236.606689 264.605225,235.229431 261.774323,235.731003 
	C259.447662,236.143250 256.291534,239.616516 256.037933,242.002518 
	C255.729599,244.903595 257.317108,248.871841 259.464447,250.957932 
	C262.413330,253.822708 266.466522,252.876846 270.319733,249.789139 
z"/>
<path fill="#A5002A" opacity="1.000000" stroke="none" 
	d="
M240.214905,224.707520 
	C239.856537,192.648117 239.822586,160.321945 239.644623,127.551544 
	C239.999741,128.207031 240.932449,129.305771 240.934860,130.406555 
	C241.002731,161.281006 240.978424,192.155640 240.948090,223.030243 
	C240.947617,223.500549 240.681473,223.970596 240.214905,224.707520 
z"/>
<path fill="#FFFFFE" opacity="1.000000" stroke="none" 
	d="
M1266.041260,295.539307 
	C1268.869385,295.051514 1271.694702,295.284546 1274.445557,294.934052 
	C1277.835083,294.502136 1280.835449,295.731659 1281.594604,298.578705 
	C1282.308105,301.255035 1281.090698,304.446259 1280.722778,307.410950 
	C1280.232178,307.358887 1279.741577,307.306854 1279.250977,307.254791 
	C1280.429565,308.921722 1281.608032,310.588623 1282.851929,312.591125 
	C1280.786011,312.926666 1278.654785,312.926666 1276.926392,312.926666 
	C1275.821289,311.299774 1274.903931,309.949280 1273.986572,308.598755 
	C1273.069458,309.845825 1272.152344,311.092896 1270.866211,312.841797 
	C1269.931519,312.841797 1268.175659,312.841797 1266.005249,312.841797 
	C1266.005249,307.145050 1266.005249,301.573212 1266.041260,295.539307 
z"/>
<path fill="#B6113B" opacity="1.000000" stroke="none" 
	d="
M270.058746,250.063354 
	C266.466522,252.876846 262.413330,253.822708 259.464447,250.957932 
	C257.317108,248.871841 255.729599,244.903595 256.037933,242.002518 
	C256.291534,239.616516 259.447662,236.143250 261.774323,235.731003 
	C264.605225,235.229431 268.706085,236.606689 270.836365,238.651688 
	C274.220825,241.900635 273.359833,246.186707 270.058746,250.063354 
M268.323425,247.344254 
	C268.326996,246.183609 268.059235,244.940475 268.382538,243.877045 
	C269.583893,239.925888 268.585876,238.272797 264.512573,238.025894 
	C262.916199,237.929138 261.309082,238.010071 259.251526,238.010071 
	C259.251526,240.280609 259.121979,242.074066 259.288849,243.839539 
	C259.447998,245.523422 259.916138,247.178101 260.248444,248.845627 
	C261.455170,247.928497 262.661896,247.011368 262.884766,246.841980 
	C265.358978,247.322800 267.017670,247.645126 268.323425,247.344254 
z"/>
<path fill="#F4E0E9" opacity="1.000000" stroke="none" 
	d="
M268.499878,247.655853 
	C267.017670,247.645126 265.358978,247.322800 262.884766,246.841980 
	C262.661896,247.011368 261.455170,247.928497 260.248444,248.845627 
	C259.916138,247.178101 259.447998,245.523422 259.288849,243.839539 
	C259.121979,242.074066 259.251526,240.280609 259.251526,238.010071 
	C261.309082,238.010071 262.916199,237.929138 264.512573,238.025894 
	C268.585876,238.272797 269.583893,239.925888 268.382538,243.877045 
	C268.059235,244.940475 268.326996,246.183609 268.499878,247.655853 
z"/>
</svg>