<?xml version="1.0" encoding="UTF-8" standalone="no"?>
<svg
   id="Layer_1"
   data-name="Layer 1"
   viewBox="0 0 85.000004 85.000003"
   version="1.1"
   sodipodi:docname="_005.svg"
   width="85"
   height="85"
   xmlns:inkscape="http://www.inkscape.org/namespaces/inkscape"
   xmlns:sodipodi="http://sodipodi.sourceforge.net/DTD/sodipodi-0.dtd"
   xmlns="http://www.w3.org/2000/svg"
   xmlns:svg="http://www.w3.org/2000/svg">
  <defs
     id="defs296" />
  <sodipodi:namedview
     id="namedview296"
     pagecolor="#ffffff"
     bordercolor="#000000"
     borderopacity="0.25"
     inkscape:showpageshadow="2"
     inkscape:pageopacity="0.0"
     inkscape:pagecheckerboard="0"
     inkscape:deskcolor="#d1d1d1" />
  <style
     type="text/css"
     id="style1">.cls-1undefined</style>
  <g
     id="_005"
     data-name="005"
     transform="translate(-443.5,-0.1)">
    <polygon
       class="cls-1"
       points="497.5,32.99 498,32.99 498,32.49 "
       id="polygon1" />
    <polygon
       class="cls-1"
       points="496.49,36.03 496.99,36.03 496.99,35.52 "
       id="polygon2" />
    <polygon
       class="cls-1"
       points="496.49,34 496.99,34 496.99,33.5 "
       id="polygon3" />
    <polygon
       class="cls-1"
       points="496.49,38.35 496.99,38.85 496.99,38.35 "
       id="polygon4" />
    <polygon
       class="cls-1"
       points="496.49,32.28 496.99,32.78 496.99,32.28 "
       id="polygon5" />
    <polygon
       class="cls-1"
       points="496.49,36.32 496.99,36.83 496.99,36.32 "
       id="polygon6" />
    <polygon
       class="cls-1"
       points="495.47,29.24 495.97,29.74 495.97,29.24 "
       id="polygon7" />
    <polygon
       class="cls-1"
       points="496.49,38.05 496.99,38.05 496.99,37.55 "
       id="polygon8" />
    <polygon
       class="cls-1"
       points="496.49,30.25 496.99,30.75 496.99,30.25 "
       id="polygon9" />
    <polygon
       class="cls-1"
       points="497.5,35.01 498,35.01 498,34.51 "
       id="polygon10" />
    <polygon
       class="cls-1"
       points="497.5,35.31 498,35.81 498,35.31 "
       id="polygon11" />
    <polygon
       class="cls-1"
       points="496.49,31.98 496.99,31.98 496.99,31.48 "
       id="polygon12" />
    <polygon
       class="cls-1"
       points="497.5,33.29 498,33.79 498,33.29 "
       id="polygon13" />
    <polygon
       class="cls-1"
       points="497.5,37.04 498,37.04 498,36.54 "
       id="polygon14" />
    <polygon
       class="cls-1"
       points="495.47,30.96 495.97,30.96 495.97,30.46 "
       id="polygon15" />
    <polygon
       class="cls-1"
       points="496.49,28.22 496.99,28.72 496.99,28.22 "
       id="polygon16" />
    <polygon
       class="cls-1"
       points="497.5,37.34 498,37.84 498,37.34 "
       id="polygon17" />
    <polygon
       class="cls-1"
       points="496.49,34.3 496.99,34.8 496.99,34.3 "
       id="polygon18" />
    <polygon
       class="cls-1"
       points="494.46,34.3 494.96,34.8 494.96,34.3 "
       id="polygon19" />
    <polygon
       class="cls-1"
       points="494.46,34 494.96,34 494.96,33.5 "
       id="polygon20" />
    <polygon
       class="cls-1"
       points="494.46,36.03 494.96,36.03 494.96,35.52 "
       id="polygon21" />
    <polygon
       class="cls-1"
       points="494.46,32.28 494.96,32.78 494.96,32.28 "
       id="polygon22" />
    <polygon
       class="cls-1"
       points="494.46,31.98 494.96,31.98 494.96,31.47 "
       id="polygon23" />
    <polygon
       class="cls-1"
       points="494.46,36.32 494.96,36.82 494.96,36.32 "
       id="polygon24" />
    <polygon
       class="cls-1"
       points="494.46,38.35 494.96,38.85 494.96,38.35 "
       id="polygon25" />
    <polygon
       class="cls-1"
       points="494.46,40.07 494.96,40.07 494.96,39.57 "
       id="polygon26" />
    <polygon
       class="cls-1"
       points="494.46,38.05 494.96,38.05 494.96,37.55 "
       id="polygon27" />
    <polygon
       class="cls-1"
       points="495.47,31.26 495.97,31.76 495.97,31.26 "
       id="polygon28" />
    <polygon
       class="cls-1"
       points="495.47,35.01 495.97,35.01 495.97,34.51 "
       id="polygon29" />
    <polygon
       class="cls-1"
       points="495.47,33.29 495.97,33.79 495.97,33.29 "
       id="polygon30" />
    <polygon
       class="cls-1"
       points="495.48,32.99 495.97,32.99 495.97,32.49 "
       id="polygon31" />
    <polygon
       class="cls-1"
       points="495.47,35.31 495.97,35.81 495.97,35.31 "
       id="polygon32" />
    <polygon
       class="cls-1"
       points="495.48,39.36 495.97,39.86 495.97,39.36 "
       id="polygon33" />
    <polygon
       class="cls-1"
       points="495.47,39.06 495.97,39.06 495.97,38.56 "
       id="polygon34" />
    <polygon
       class="cls-1"
       points="495.47,37.04 495.97,37.04 495.97,36.54 "
       id="polygon35" />
    <polygon
       class="cls-1"
       points="495.47,37.34 495.97,37.84 495.97,37.34 "
       id="polygon36" />
    <polygon
       class="cls-1"
       points="499.52,27.21 500.02,27.71 500.02,27.21 "
       id="polygon37" />
    <polygon
       class="cls-1"
       points="494.46,40.37 494.96,40.87 494.96,40.37 "
       id="polygon38" />
    <polygon
       class="cls-1"
       points="499.53,28.94 500.02,28.94 500.02,28.44 "
       id="polygon39" />
    <polygon
       class="cls-1"
       points="500.54,34.3 501.04,34.8 501.04,34.3 "
       id="polygon40" />
    <polygon
       class="cls-1"
       points="499.52,25.19 500.02,25.69 500.02,25.19 "
       id="polygon41" />
    <polygon
       class="cls-1"
       points="499.52,26.91 500.02,26.91 500.02,26.41 "
       id="polygon42" />
    <polygon
       class="cls-1"
       points="499.53,31.26 500.02,31.76 500.02,31.26 "
       id="polygon43" />
    <polygon
       class="cls-1"
       points="499.53,32.99 500.02,32.99 500.02,32.49 "
       id="polygon44" />
    <polygon
       class="cls-1"
       points="499.53,29.24 500.02,29.74 500.02,29.24 "
       id="polygon45" />
    <polygon
       class="cls-1"
       points="499.52,30.96 500.02,30.96 500.02,30.46 "
       id="polygon46" />
    <polygon
       class="cls-1"
       points="500.54,34 501.04,34 501.04,33.5 "
       id="polygon47" />
    <polygon
       class="cls-1"
       points="500.54,28.22 501.04,28.72 501.04,28.22 "
       id="polygon48" />
    <polygon
       class="cls-1"
       points="500.54,27.92 501.04,27.92 501.04,27.43 "
       id="polygon49" />
    <polygon
       class="cls-1"
       points="500.54,26.2 501.04,26.7 501.04,26.2 "
       id="polygon50" />
    <polygon
       class="cls-1"
       points="497.5,31.26 498,31.76 498,31.26 "
       id="polygon51" />
    <polygon
       class="cls-1"
       points="500.54,30.25 501.04,30.75 501.04,30.25 "
       id="polygon52" />
    <polygon
       class="cls-1"
       points="500.54,32.28 501.04,32.77 501.04,32.28 "
       id="polygon53" />
    <polygon
       class="cls-1"
       points="499.52,33.29 500.02,33.79 500.02,33.29 "
       id="polygon54" />
    <polygon
       class="cls-1"
       points="500.54,31.98 501.04,31.98 501.04,31.48 "
       id="polygon55" />
    <polygon
       class="cls-1"
       points="500.54,29.95 501.04,29.95 501.04,29.45 "
       id="polygon56" />
    <polygon
       class="cls-1"
       points="499.53,35.01 500.02,35.01 500.02,34.51 "
       id="polygon57" />
    <polygon
       class="cls-1"
       points="497.5,27.21 498,27.71 498,27.21 "
       id="polygon58" />
    <polygon
       class="cls-1"
       points="498.51,36.32 499.01,36.82 499.01,36.32 "
       id="polygon59" />
    <polygon
       class="cls-1"
       points="498.51,34 499.01,34 499.01,33.5 "
       id="polygon60" />
    <polygon
       class="cls-1"
       points="498.51,34.3 499.01,34.8 499.01,34.3 "
       id="polygon61" />
    <polygon
       class="cls-1"
       points="497.5,30.96 498,30.96 498,30.46 "
       id="polygon62" />
    <polygon
       class="cls-1"
       points="497.5,29.24 498,29.74 498,29.24 "
       id="polygon63" />
    <polygon
       class="cls-1"
       points="497.5,28.94 498,28.94 498,28.44 "
       id="polygon64" />
    <polygon
       class="cls-1"
       points="498.51,36.03 499.01,36.03 499.01,35.53 "
       id="polygon65" />
    <polygon
       class="cls-1"
       points="498.51,26.2 499.01,26.7 499.01,26.2 "
       id="polygon66" />
    <polygon
       class="cls-1"
       points="498.51,27.92 499.01,27.92 499.01,27.43 "
       id="polygon67" />
    <polygon
       class="cls-1"
       points="499.52,35.31 500.02,35.81 500.02,35.31 "
       id="polygon68" />
    <polygon
       class="cls-1"
       points="498.51,28.22 499.01,28.72 499.01,28.22 "
       id="polygon69" />
    <polygon
       class="cls-1"
       points="498.51,31.98 499.01,31.98 499.01,31.48 "
       id="polygon70" />
    <polygon
       class="cls-1"
       points="498.51,32.28 499.01,32.77 499.01,32.28 "
       id="polygon71" />
    <polygon
       class="cls-1"
       points="498.51,30.25 499.01,30.75 499.01,30.25 "
       id="polygon72" />
    <polygon
       class="cls-1"
       points="498.51,29.95 499.01,29.95 499.01,29.45 "
       id="polygon73" />
    <polygon
       class="cls-1"
       points="481.59,38.05 479.92,36.39 478.26,38.05 "
       id="polygon74" />
    <polygon
       class="cls-1"
       points="483.76,36.17 482.1,34.51 482.1,37.84 "
       id="polygon75" />
    <polygon
       class="cls-1"
       points="485.64,38.35 482.31,38.35 483.98,40.01 "
       id="polygon76" />
    <polygon
       class="cls-1"
       points="483.76,40.23 482.1,38.56 482.1,41.89 "
       id="polygon77" />
    <polygon
       class="cls-1"
       points="478.26,34 481.59,34 479.93,32.34 "
       id="polygon78" />
    <polygon
       class="cls-1"
       points="482.31,38.05 485.64,38.05 483.98,36.39 "
       id="polygon79" />
    <polygon
       class="cls-1"
       points="500.54,25.9 501.04,25.9 501.04,25.4 "
       id="polygon80" />
    <polygon
       class="cls-1"
       points="466.11,25.9 469.65,25.9 469.65,22.36 "
       id="polygon81" />
    <polygon
       class="cls-1"
       points="485.64,42.4 482.31,42.4 483.98,44.06 "
       id="polygon82" />
    <polygon
       class="cls-1"
       points="482.31,46.15 485.64,46.15 483.98,44.49 "
       id="polygon83" />
    <polygon
       class="cls-1"
       points="485.64,42.1 483.98,40.44 482.31,42.1 "
       id="polygon84" />
    <polygon
       class="cls-1"
       points="477.54,34 474,30.46 474,34 "
       id="polygon85" />
    <polygon
       class="cls-1"
       points="479.92,40.01 481.59,38.35 478.26,38.35 "
       id="polygon86" />
    <polygon
       class="cls-1"
       points="477.54,29.95 474,26.41 474,29.95 "
       id="polygon87" />
    <polygon
       class="cls-1"
       points="473.49,29.95 469.95,26.41 469.95,29.95 "
       id="polygon88" />
    <polygon
       class="cls-1"
       points="473.49,25.9 469.95,22.36 469.95,25.9 "
       id="polygon89" />
    <polygon
       class="cls-1"
       points="481.59,34.3 478.26,34.3 479.92,35.96 "
       id="polygon90" />
    <polygon
       class="cls-1"
       points="479.71,36.17 478.05,34.51 478.05,37.84 "
       id="polygon91" />
    <polygon
       class="cls-1"
       points="479.71,32.12 478.05,30.46 478.05,33.79 "
       id="polygon92" />
    <polygon
       class="cls-1"
       points="469.44,46.45 461.85,46.45 461.85,54.04 "
       id="polygon93" />
    <polygon
       class="cls-1"
       points="465.75,26.26 462.06,29.95 469.44,29.95 "
       id="polygon94" />
    <polygon
       class="cls-1"
       points="469.44,22.15 462.06,22.15 465.75,25.84 "
       id="polygon95" />
    <polygon
       class="cls-1"
       points="469.44,30.25 462.06,30.25 465.75,33.94 "
       id="polygon96" />
    <polygon
       class="cls-1"
       points="465.39,25.9 461.85,22.36 461.85,25.9 "
       id="polygon97" />
    <polygon
       class="cls-1"
       points="469.44,38.35 462.06,38.35 465.75,42.04 "
       id="polygon98" />
    <polygon
       class="cls-1"
       points="469.44,21.85 461.85,14.26 461.85,21.85 "
       id="polygon99" />
    <polygon
       class="cls-1"
       points="465.39,26.2 461.85,26.2 461.85,29.74 "
       id="polygon100" />
    <polygon
       class="cls-1"
       points="466.11,26.2 469.65,29.74 469.65,26.2 "
       id="polygon101" />
    <polygon
       class="cls-1"
       points="462.06,46.15 469.44,46.15 465.75,42.46 "
       id="polygon102" />
    <polygon
       class="cls-1"
       points="469.44,38.05 465.75,34.36 462.06,38.05 "
       id="polygon103" />
    <polygon
       class="cls-1"
       points="462.06,54.25 469.65,54.25 469.65,46.66 "
       id="polygon104" />
    <polygon
       class="cls-1"
       points="465.96,42.25 469.65,45.94 469.65,38.56 "
       id="polygon105" />
    <polygon
       class="cls-1"
       points="466.11,34.3 469.65,37.84 469.65,34.3 "
       id="polygon106" />
    <polygon
       class="cls-1"
       points="469.65,30.46 466.11,34 469.65,34 469.65,33.79 "
       id="polygon107" />
    <rect
       class="cls-1"
       x="461.85001"
       y="54.549999"
       width="7.8000002"
       height="7.8000002"
       id="rect107" />
    <polygon
       class="cls-1"
       points="465.54,42.25 461.85,38.56 461.85,45.94 "
       id="polygon108" />
    <polygon
       class="cls-1"
       points="473.49,34 469.95,30.46 469.95,34 "
       id="polygon109" />
    <polygon
       class="cls-1"
       points="465.54,34.15 461.85,30.46 461.85,37.84 "
       id="polygon110" />
    <polygon
       class="cls-1"
       points="481.59,42.1 479.92,40.44 478.26,42.1 "
       id="polygon111" />
    <polygon
       class="cls-1"
       points="488.39,40.37 489.9,41.89 489.9,40.37 "
       id="polygon112" />
    <polygon
       class="cls-1"
       points="488.39,44.13 489.9,44.13 489.9,42.61 "
       id="polygon113" />
    <polygon
       class="cls-1"
       points="490.41,42.4 491.92,43.91 491.92,42.4 "
       id="polygon114" />
    <polygon
       class="cls-1"
       points="488.39,44.42 489.9,45.94 489.9,44.42 "
       id="polygon115" />
    <polygon
       class="cls-1"
       points="488.39,40.07 489.9,40.07 489.9,38.56 "
       id="polygon116" />
    <polygon
       class="cls-1"
       points="486.36,46.15 487.87,46.15 487.87,44.64 "
       id="polygon117" />
    <polygon
       class="cls-1"
       points="486.36,46.45 487.87,47.96 487.87,46.45 "
       id="polygon118" />
    <polygon
       class="cls-1"
       points="486.36,42.4 487.87,43.91 487.87,42.4 "
       id="polygon119" />
    <polygon
       class="cls-1"
       points="486.36,42.1 487.87,42.1 487.87,40.59 "
       id="polygon120" />
    <polygon
       class="cls-1"
       points="486.36,38.35 487.87,39.86 487.87,38.35 "
       id="polygon121" />
    <polygon
       class="cls-1"
       points="492.44,40.07 493.95,40.07 493.95,38.56 "
       id="polygon122" />
    <polygon
       class="cls-1"
       points="492.44,40.37 493.95,41.89 493.95,40.37 "
       id="polygon123" />
    <polygon
       class="cls-1"
       points="492.44,36.32 493.95,37.84 493.95,36.32 "
       id="polygon124" />
    <polygon
       class="cls-1"
       points="490.41,42.1 491.92,42.1 491.92,40.59 "
       id="polygon125" />
    <polygon
       class="cls-1"
       points="492.44,36.03 493.95,36.03 493.95,34.51 "
       id="polygon126" />
    <polygon
       class="cls-1"
       points="490.41,34.3 491.92,35.81 491.92,34.3 "
       id="polygon127" />
    <polygon
       class="cls-1"
       points="490.41,38.35 491.92,39.86 491.92,38.35 "
       id="polygon128" />
    <polygon
       class="cls-1"
       points="470.16,34.3 473.7,37.84 473.7,34.3 "
       id="polygon129" />
    <polygon
       class="cls-1"
       points="490.41,38.05 491.92,38.05 491.92,36.54 "
       id="polygon130" />
    <polygon
       class="cls-1"
       points="474.21,30.25 477.75,33.79 477.75,30.25 "
       id="polygon131" />
    <polygon
       class="cls-1"
       points="474.21,38.35 477.75,41.89 477.75,38.35 "
       id="polygon132" />
    <polygon
       class="cls-1"
       points="474.21,34.3 477.75,37.84 477.75,34.3 "
       id="polygon133" />
    <polygon
       class="cls-1"
       points="479.71,40.22 478.05,38.56 478.05,41.89 "
       id="polygon134" />
    <polygon
       class="cls-1"
       points="477.54,38.05 474,34.51 474,38.05 "
       id="polygon135" />
    <polygon
       class="cls-1"
       points="492.44,32.28 493.95,33.79 493.95,32.28 "
       id="polygon136" />
    <polygon
       class="cls-1"
       points="470.16,30.25 473.7,33.79 473.7,30.25 "
       id="polygon137" />
    <polygon
       class="cls-1"
       points="470.16,26.2 473.7,29.74 473.7,26.2 "
       id="polygon138" />
    <polygon
       class="cls-1"
       points="484.19,48.32 485.85,49.99 485.85,46.66 "
       id="polygon139" />
    <polygon
       class="cls-1"
       points="485.64,46.45 482.31,46.45 483.97,48.11 "
       id="polygon140" />
    <polygon
       class="cls-1"
       points="483.76,44.28 482.1,42.61 482.1,45.94 "
       id="polygon141" />
    <polygon
       class="cls-1"
       points="484.19,40.23 485.85,41.89 485.85,38.56 "
       id="polygon142" />
    <polygon
       class="cls-1"
       points="481.59,42.4 478.26,42.4 479.92,44.06 "
       id="polygon143" />
    <polygon
       class="cls-1"
       points="484.19,44.28 485.85,45.94 485.85,42.61 "
       id="polygon144" />
    <polygon
       class="cls-1"
       points="480.14,44.28 481.8,45.94 481.8,42.61 "
       id="polygon145" />
    <polygon
       class="cls-1"
       points="480.14,36.17 481.8,37.84 481.8,34.51 "
       id="polygon146" />
    <polygon
       class="cls-1"
       points="480.14,40.22 481.8,41.89 481.8,38.56 "
       id="polygon147" />
    <polygon
       class="cls-1"
       points="496.49,29.95 496.99,29.95 496.99,29.45 "
       id="polygon148" />
    <polygon
       class="cls-1"
       points="495.76,38.05 495.26,37.55 495.26,38.05 "
       id="polygon149" />
    <polygon
       class="cls-1"
       points="495.76,36.32 495.26,36.32 495.26,36.82 "
       id="polygon150" />
    <polygon
       class="cls-1"
       points="495.76,36.03 495.26,35.53 495.26,36.03 "
       id="polygon151" />
    <polygon
       class="cls-1"
       points="495.76,38.35 495.26,38.35 495.26,38.85 "
       id="polygon152" />
    <polygon
       class="cls-1"
       points="495.76,32.28 495.26,32.28 495.26,32.78 "
       id="polygon153" />
    <polygon
       class="cls-1"
       points="495.76,31.98 495.26,31.48 495.26,31.98 "
       id="polygon154" />
    <polygon
       class="cls-1"
       points="495.76,40.07 495.26,39.57 495.26,40.07 "
       id="polygon155" />
    <polygon
       class="cls-1"
       points="495.76,34 495.26,33.5 495.26,34 "
       id="polygon156" />
    <polygon
       class="cls-1"
       points="495.76,34.3 495.26,34.3 495.26,34.8 "
       id="polygon157" />
    <polygon
       class="cls-1"
       points="494.75,30.96 494.25,30.46 494.25,30.96 "
       id="polygon158" />
    <polygon
       class="cls-1"
       points="494.75,33.29 494.25,33.29 494.25,33.79 "
       id="polygon159" />
    <polygon
       class="cls-1"
       points="494.75,32.99 494.25,32.49 494.25,32.99 "
       id="polygon160" />
    <polygon
       class="cls-1"
       points="494.75,31.26 494.25,31.26 494.25,31.76 "
       id="polygon161" />
    <polygon
       class="cls-1"
       points="494.75,35.01 494.25,34.51 494.25,35.01 "
       id="polygon162" />
    <polygon
       class="cls-1"
       points="495.76,40.37 495.26,40.37 495.26,40.88 "
       id="polygon163" />
    <polygon
       class="cls-1"
       points="494.96,29.95 494.96,29.45 494.46,29.95 "
       id="polygon164" />
    <polygon
       class="cls-1"
       points="500.54,24.17 501.04,24.67 501.04,24.17 "
       id="polygon165" />
    <polygon
       class="cls-1"
       points="495.76,30.25 495.26,30.25 495.26,30.75 "
       id="polygon166" />
    <polygon
       class="cls-1"
       points="494.96,30.75 494.96,30.25 494.46,30.25 "
       id="polygon167" />
    <polygon
       class="cls-1"
       points="496.77,29.24 496.28,29.24 496.28,29.74 "
       id="polygon168" />
    <polygon
       class="cls-1"
       points="496.78,30.96 496.28,30.46 496.28,30.96 "
       id="polygon169" />
    <polygon
       class="cls-1"
       points="496.78,28.94 496.28,28.44 496.28,28.94 "
       id="polygon170" />
    <polygon
       class="cls-1"
       points="496.78,31.26 496.28,31.26 496.28,31.76 "
       id="polygon171" />
    <polygon
       class="cls-1"
       points="497.79,38.05 497.29,37.55 497.29,38.05 "
       id="polygon172" />
    <polygon
       class="cls-1"
       points="496.99,27.92 496.99,27.42 496.49,27.92 "
       id="polygon173" />
    <polygon
       class="cls-1"
       points="496.78,32.99 496.28,32.49 496.28,32.99 "
       id="polygon174" />
    <polygon
       class="cls-1"
       points="497.79,38.35 497.29,38.35 497.29,38.85 "
       id="polygon175" />
    <polygon
       class="cls-1"
       points="496.77,33.29 496.28,33.29 496.28,33.79 "
       id="polygon176" />
    <polygon
       class="cls-1"
       points="496.78,39.36 496.28,39.36 496.28,39.86 "
       id="polygon177" />
    <polygon
       class="cls-1"
       points="496.78,39.06 496.28,38.56 496.28,39.06 "
       id="polygon178" />
    <polygon
       class="cls-1"
       points="495.97,28.94 495.97,28.44 495.47,28.94 "
       id="polygon179" />
    <polygon
       class="cls-1"
       points="496.77,37.34 496.28,37.34 496.28,37.84 "
       id="polygon180" />
    <polygon
       class="cls-1"
       points="496.78,35.31 496.28,35.31 496.28,35.81 "
       id="polygon181" />
    <polygon
       class="cls-1"
       points="496.77,35.01 496.28,34.51 496.28,35.01 "
       id="polygon182" />
    <polygon
       class="cls-1"
       points="496.78,37.04 496.28,36.54 496.28,37.04 "
       id="polygon183" />
    <polygon
       class="cls-1"
       points="495.76,29.95 495.26,29.45 495.26,29.95 "
       id="polygon184" />
    <polygon
       class="cls-1"
       points="493.74,34 492.23,32.49 492.23,34 "
       id="polygon185" />
    <polygon
       class="cls-1"
       points="489.69,38.35 488.17,38.35 488.17,39.86 "
       id="polygon186" />
    <polygon
       class="cls-1"
       points="489.69,42.1 488.17,40.59 488.17,42.1 "
       id="polygon187" />
    <polygon
       class="cls-1"
       points="489.69,42.4 488.17,42.4 488.17,43.91 "
       id="polygon188" />
    <polygon
       class="cls-1"
       points="489.69,46.15 488.17,44.64 488.17,46.15 "
       id="polygon189" />
    <polygon
       class="cls-1"
       points="489.69,46.45 488.17,46.45 488.17,47.96 "
       id="polygon190" />
    <polygon
       class="cls-1"
       points="491.71,44.13 490.2,42.61 490.2,44.13 "
       id="polygon191" />
    <polygon
       class="cls-1"
       points="489.69,38.05 488.17,36.54 488.17,38.05 "
       id="polygon192" />
    <polygon
       class="cls-1"
       points="489.9,36.03 489.9,34.51 488.39,36.03 "
       id="polygon193" />
    <polygon
       class="cls-1"
       points="489.9,37.84 489.9,36.32 488.39,36.32 "
       id="polygon194" />
    <polygon
       class="cls-1"
       points="491.71,44.42 490.2,44.42 490.2,45.94 "
       id="polygon195" />
    <polygon
       class="cls-1"
       points="487.66,48.47 486.15,48.47 486.15,49.99 "
       id="polygon196" />
    <polygon
       class="cls-1"
       points="494.75,37.04 494.25,36.54 494.25,37.04 "
       id="polygon197" />
    <polygon
       class="cls-1"
       points="487.66,48.17 486.15,46.66 486.15,48.17 "
       id="polygon198" />
    <polygon
       class="cls-1"
       points="487.66,44.13 486.15,42.61 486.15,44.13 "
       id="polygon199" />
    <polygon
       class="cls-1"
       points="487.87,38.05 487.87,36.54 486.36,38.05 "
       id="polygon200" />
    <polygon
       class="cls-1"
       points="487.66,40.07 486.15,38.56 486.15,40.07 "
       id="polygon201" />
    <polygon
       class="cls-1"
       points="487.66,40.37 486.15,40.37 486.15,41.89 "
       id="polygon202" />
    <polygon
       class="cls-1"
       points="487.66,44.42 486.15,44.42 486.15,45.94 "
       id="polygon203" />
    <polygon
       class="cls-1"
       points="494.75,41.39 494.25,41.39 494.25,41.89 "
       id="polygon204" />
    <polygon
       class="cls-1"
       points="494.75,41.09 494.25,40.59 494.25,41.09 "
       id="polygon205" />
    <polygon
       class="cls-1"
       points="493.95,31.98 493.95,30.46 492.44,31.98 "
       id="polygon206" />
    <polygon
       class="cls-1"
       points="497.79,36.32 497.29,36.32 497.29,36.82 "
       id="polygon207" />
    <polygon
       class="cls-1"
       points="494.75,39.36 494.25,39.36 494.25,39.86 "
       id="polygon208" />
    <polygon
       class="cls-1"
       points="493.74,34.3 492.23,34.3 492.23,35.81 "
       id="polygon209" />
    <polygon
       class="cls-1"
       points="491.71,40.37 490.2,40.37 490.2,41.89 "
       id="polygon210" />
    <polygon
       class="cls-1"
       points="494.75,39.06 494.25,38.56 494.25,39.06 "
       id="polygon211" />
    <polygon
       class="cls-1"
       points="494.75,37.34 494.25,37.34 494.25,37.84 "
       id="polygon212" />
    <polygon
       class="cls-1"
       points="491.71,36.32 490.2,36.32 490.2,37.84 "
       id="polygon213" />
    <polygon
       class="cls-1"
       points="491.71,36.03 490.2,34.51 490.2,36.03 "
       id="polygon214" />
    <polygon
       class="cls-1"
       points="491.71,40.07 490.2,38.56 490.2,40.07 "
       id="polygon215" />
    <polygon
       class="cls-1"
       points="491.92,34 491.92,32.49 490.41,34 "
       id="polygon216" />
    <polygon
       class="cls-1"
       points="493.74,42.1 492.23,40.59 492.23,42.1 "
       id="polygon217" />
    <polygon
       class="cls-1"
       points="493.74,38.35 492.23,38.35 492.23,39.86 "
       id="polygon218" />
    <polygon
       class="cls-1"
       points="493.74,38.05 492.23,36.54 492.23,38.05 "
       id="polygon219" />
    <polygon
       class="cls-1"
       points="493.74,42.4 492.23,42.4 492.23,43.91 "
       id="polygon220" />
    <polygon
       class="cls-1"
       points="494.75,35.31 494.25,35.31 494.25,35.81 "
       id="polygon221" />
    <polygon
       class="cls-1"
       points="501.84,34 501.34,33.5 501.34,34 "
       id="polygon222" />
    <polygon
       class="cls-1"
       points="501.04,23.88 501.04,23.37 500.54,23.88 "
       id="polygon223" />
    <polygon
       class="cls-1"
       points="501.84,34.3 501.34,34.3 501.34,34.8 "
       id="polygon224" />
    <polygon
       class="cls-1"
       points="500.83,25.19 500.33,25.19 500.33,25.69 "
       id="polygon225" />
    <polygon
       class="cls-1"
       points="500.83,24.89 500.33,24.39 500.33,24.89 "
       id="polygon226" />
    <polygon
       class="cls-1"
       points="501.84,29.95 501.34,29.45 501.34,29.95 "
       id="polygon227" />
    <polygon
       class="cls-1"
       points="501.84,30.25 501.34,30.25 501.34,30.75 "
       id="polygon228" />
    <polygon
       class="cls-1"
       points="501.84,31.98 501.34,31.48 501.34,31.98 "
       id="polygon229" />
    <polygon
       class="cls-1"
       points="501.84,32.28 501.34,32.28 501.34,32.78 "
       id="polygon230" />
    <polygon
       class="cls-1"
       points="500.83,29.24 500.33,29.24 500.33,29.74 "
       id="polygon231" />
    <polygon
       class="cls-1"
       points="500.83,32.99 500.33,32.49 500.33,32.99 "
       id="polygon232" />
    <polygon
       class="cls-1"
       points="500.83,31.26 500.33,31.26 500.33,31.76 "
       id="polygon233" />
    <polygon
       class="cls-1"
       points="500.83,30.96 500.33,30.46 500.33,30.96 "
       id="polygon234" />
    <polygon
       class="cls-1"
       points="500.83,33.29 500.33,33.29 500.33,33.79 "
       id="polygon235" />
    <polygon
       class="cls-1"
       points="500.83,28.94 500.33,28.44 500.33,28.94 "
       id="polygon236" />
    <polygon
       class="cls-1"
       points="501.84,28.22 501.34,28.22 501.34,28.72 "
       id="polygon237" />
    <polygon
       class="cls-1"
       points="500.83,27.21 500.33,27.21 500.33,27.71 "
       id="polygon238" />
    <polygon
       class="cls-1"
       points="500.83,26.91 500.33,26.41 500.33,26.91 "
       id="polygon239" />
    <polygon
       class="cls-1"
       points="501.55,28.94 502.05,28.94 502.05,28.44 "
       id="polygon240" />
    <polygon
       class="cls-1"
       points="501.55,26.91 502.05,26.91 502.05,26.41 "
       id="polygon241" />
    <polygon
       class="cls-1"
       points="500.83,35.01 500.33,34.51 500.33,35.01 "
       id="polygon242" />
    <polygon
       class="cls-1"
       points="501.55,29.24 502.05,29.74 502.05,29.24 "
       id="polygon243" />
    <polygon
       class="cls-1"
       points="501.55,27.21 502.05,27.71 502.05,27.21 "
       id="polygon244" />
    <polygon
       class="cls-1"
       points="501.55,30.96 502.05,30.96 502.05,30.46 "
       id="polygon245" />
    <polygon
       class="cls-1"
       points="501.55,31.26 502.05,31.76 502.05,31.26 "
       id="polygon246" />
    <polygon
       class="cls-1"
       points="501.55,33.29 502.05,33.79 502.05,33.29 "
       id="polygon247" />
    <polygon
       class="cls-1"
       points="501.55,32.99 502.05,32.99 502.05,32.49 "
       id="polygon248" />
    <polygon
       class="cls-1"
       points="501.84,24.17 501.34,24.17 501.34,24.67 "
       id="polygon249" />
    <polygon
       class="cls-1"
       points="501.84,27.92 501.34,27.43 501.34,27.92 "
       id="polygon250" />
    <polygon
       class="cls-1"
       points="501.84,25.9 501.34,25.4 501.34,25.9 "
       id="polygon251" />
    <polygon
       class="cls-1"
       points="501.84,26.2 501.34,26.2 501.34,26.7 "
       id="polygon252" />
    <polygon
       class="cls-1"
       points="501.84,23.88 501.34,23.38 501.34,23.88 "
       id="polygon253" />
    <polygon
       class="cls-1"
       points="501.55,24.89 502.05,24.89 502.05,24.39 "
       id="polygon254" />
    <polygon
       class="cls-1"
       points="501.55,25.19 502.05,25.69 502.05,25.19 "
       id="polygon255" />
    <polygon
       class="cls-1"
       points="501.55,23.16 502.05,23.66 502.05,23.16 "
       id="polygon256" />
    <polygon
       class="cls-1"
       points="502.05,22.86 502.05,22.36 501.55,22.86 "
       id="polygon257" />
    <polygon
       class="cls-1"
       points="499.81,32.28 499.31,32.28 499.31,32.78 "
       id="polygon258" />
    <polygon
       class="cls-1"
       points="498.8,35.01 498.3,34.51 498.3,35.01 "
       id="polygon259" />
    <polygon
       class="cls-1"
       points="498.8,35.31 498.3,35.31 498.3,35.81 "
       id="polygon260" />
    <polygon
       class="cls-1"
       points="498.8,37.04 498.3,36.54 498.3,37.04 "
       id="polygon261" />
    <polygon
       class="cls-1"
       points="500.83,35.31 500.33,35.31 500.33,35.81 "
       id="polygon262" />
    <polygon
       class="cls-1"
       points="498.8,33.29 498.3,33.29 498.3,33.79 "
       id="polygon263" />
    <polygon
       class="cls-1"
       points="498.8,30.96 498.3,30.46 498.3,30.96 "
       id="polygon264" />
    <polygon
       class="cls-1"
       points="498,26.91 498,26.41 497.5,26.91 "
       id="polygon265" />
    <polygon
       class="cls-1"
       points="498.8,31.26 498.3,31.26 498.3,31.76 "
       id="polygon266" />
    <polygon
       class="cls-1"
       points="498.8,32.99 498.3,32.49 498.3,32.99 "
       id="polygon267" />
    <polygon
       class="cls-1"
       points="497.79,27.92 497.29,27.43 497.29,27.92 "
       id="polygon268" />
    <polygon
       class="cls-1"
       points="497.79,34 497.29,33.5 497.29,34 "
       id="polygon269" />
    <polygon
       class="cls-1"
       points="497.79,32.28 497.29,32.28 497.29,32.77 "
       id="polygon270" />
    <polygon
       class="cls-1"
       points="498.8,29.24 498.3,29.24 498.3,29.74 "
       id="polygon271" />
    <polygon
       class="cls-1"
       points="497.79,34.3 497.29,34.3 497.29,34.8 "
       id="polygon272" />
    <polygon
       class="cls-1"
       points="497.79,31.98 497.29,31.48 497.29,31.98 "
       id="polygon273" />
    <polygon
       class="cls-1"
       points="497.79,28.22 497.29,28.22 497.29,28.72 "
       id="polygon274" />
    <polygon
       class="cls-1"
       points="497.79,29.95 497.29,29.45 497.29,29.95 "
       id="polygon275" />
    <polygon
       class="cls-1"
       points="497.79,30.25 497.29,30.25 497.29,30.75 "
       id="polygon276" />
    <polygon
       class="cls-1"
       points="498.8,37.34 498.3,37.34 498.3,37.84 "
       id="polygon277" />
    <polygon
       class="cls-1"
       points="498.8,28.94 498.3,28.44 498.3,28.94 "
       id="polygon278" />
    <polygon
       class="cls-1"
       points="499.81,27.92 499.31,27.43 499.31,27.92 "
       id="polygon279" />
    <polygon
       class="cls-1"
       points="499.81,28.22 499.31,28.22 499.31,28.73 "
       id="polygon280" />
    <polygon
       class="cls-1"
       points="499.81,30.25 499.31,30.25 499.31,30.75 "
       id="polygon281" />
    <polygon
       class="cls-1"
       points="499.81,26.2 499.31,26.2 499.31,26.7 "
       id="polygon282" />
    <polygon
       class="cls-1"
       points="499.81,31.98 499.31,31.47 499.31,31.98 "
       id="polygon283" />
    <polygon
       class="cls-1"
       points="500.02,24.89 500.02,24.39 499.52,24.89 "
       id="polygon284" />
    <polygon
       class="cls-1"
       points="499.81,25.9 499.31,25.4 499.31,25.9 "
       id="polygon285" />
    <polygon
       class="cls-1"
       points="499.81,29.95 499.31,29.45 499.31,29.95 "
       id="polygon286" />
    <polygon
       class="cls-1"
       points="498.8,26.91 498.3,26.41 498.3,26.91 "
       id="polygon287" />
    <polygon
       class="cls-1"
       points="499.01,25.9 499.01,25.4 498.51,25.9 "
       id="polygon288" />
    <polygon
       class="cls-1"
       points="499.81,36.32 499.31,36.32 499.31,36.83 "
       id="polygon289" />
    <polygon
       class="cls-1"
       points="497.79,36.03 497.29,35.53 497.29,36.03 "
       id="polygon290" />
    <polygon
       class="cls-1"
       points="498.8,27.21 498.3,27.21 498.3,27.71 "
       id="polygon291" />
    <polygon
       class="cls-1"
       points="499.81,36.03 499.31,35.53 499.31,36.03 "
       id="polygon292" />
    <polygon
       class="cls-1"
       points="499.81,34 499.31,33.5 499.31,34 "
       id="polygon293" />
    <polygon
       class="cls-1"
       points="499.81,34.3 499.31,34.3 499.31,34.8 "
       id="polygon294" />
    <g
       id="g296">
      <path
         class="cls-1"
         d="m 486,0.1 c -23.5,0 -42.5,19 -42.5,42.5 0,23.5 19,42.5 42.5,42.5 23.5,0 42.5,-19 42.5,-42.5 0,-23.5 -19,-42.5 -42.5,-42.5 z m -18.7,71.3 h -1 v -3.2 l -1.8,1.8 -1.8,-1.8 v 3.2 h -1 v -5.7 l 2.8,2.8 2.8,-2.8 z m 4.8,-3.8 H 469 v 0.6 h 2.9 v 1.1 H 469 v 1 h 3.1 v 1.1 0 c 0,0 -4.2,0 -4.2,0 v -4.9 h 4.2 z m 2,3.8 v -3.8 h -1.6 v -1.1 h 4.2 v 1.1 h -1.6 v 3.8 z m 2.4,0 2.3,-5.7 2.3,5.7 z m 7.8,-1.9 h -1.5 v 1.9 h -1.1 v -4.9 h 2.6 c 1,0 1.6,0.6 1.6,1.5 0,0.9 -0.6,1.5 -1.6,1.5 z m 6.4,1.9 h -4.2 v -4.9 h 1.1 v 3.8 h 3.1 z m 0.5,0 2.3,-5.7 2.3,5.7 z m 9.7,0.6 v 0.1 l -3.4,-3.6 v 2.8 h -1.1 v -5.6 l 3.4,3.6 v -2.9 h 1.1 z m 4.8,-4.4 h -3.1 v 0.6 h 2.9 v 1.1 h -2.9 v 1 h 3.1 v 1.1 0 c 0,0 -4.2,0 -4.2,0 v -4.9 h 4.2 z m 4.7,0 h -1.6 v 3.8 h -1 v -3.8 h -1.6 v -1.1 h 4.2 z m 0.05,-4.95 h -8.4 V 34.51 L 486,50.56 469.95,34.51 v 28.14 h -8.4 V 13.54 L 486,37.99 510.45,13.54 Z"
         id="path294" />
      <polygon
         class="cls-1"
         points="493.5,68.6 492.8,70.3 494.2,70.3 "
         id="polygon295" />
      <polygon
         class="cls-1"
         points="478.8,68.6 478.1,70.3 479.5,70.3 "
         id="polygon296" />
      <path
         class="cls-1"
         d="m 484.3,67.6 h -1.5 v 0.8 h 1.5 c 0.3,0 0.5,-0.1 0.5,-0.4 0,-0.3 0,-0.4 -0.5,-0.4 z"
         id="path296" />
    </g>
  </g>
</svg>
