<?xml version="1.0" encoding="UTF-8" standalone="no"?>
<svg
   id="Layer_1"
   data-name="Layer 1"
   viewBox="0 0 503.10003 66.300005"
   version="1.1"
   sodipodi:docname="_012.svg"
   width="503.10001"
   height="66.300003"
   xmlns:inkscape="http://www.inkscape.org/namespaces/inkscape"
   xmlns:sodipodi="http://sodipodi.sourceforge.net/DTD/sodipodi-0.dtd"
   xmlns="http://www.w3.org/2000/svg"
   xmlns:svg="http://www.w3.org/2000/svg">
  <defs
     id="defs10" />
  <sodipodi:namedview
     id="namedview10"
     pagecolor="#ffffff"
     bordercolor="#000000"
     borderopacity="0.25"
     inkscape:showpageshadow="2"
     inkscape:pageopacity="0.0"
     inkscape:pagecheckerboard="0"
     inkscape:deskcolor="#d1d1d1" />
  <style
     type="text/css"
     id="style1">.cls-1undefined</style>
  <g
     id="_012"
     data-name="012"
     transform="translate(-17.8,-369.75)">
    <g
       id="METAPLANET-3">
      <path
         class="cls-1"
         d="m 504.7,428.55 h -11.3 v -39.3 h -16.1 v -11.1 h 43.6 v 11.1 h -16.1 v 39.3 z"
         id="path1" />
      <path
         class="cls-1"
         d="M 471.6,428.55 H 428 v -50.4 h 43.6 v 11.1 h -32.2 v 6.6 h 30.1 v 11.1 h -30.1 v 10.5 h 32.2 z"
         id="path2" />
      <path
         class="cls-1"
         d="m 422.3,435.95 -35.1,-36.7 v 29.3 h -11.3 v -57.2 l 35.1,36.7 v -29.9 h 11.3 v 57.9 0 z"
         id="path3" />
      <path
         class="cls-1"
         d="m 218.4,428.55 h -47.7 l 24,-58.8 z m -30.9,-11.1 h 14.3 l -7.1,-17.8 z"
         id="path4" />
      <path
         class="cls-1"
         d="m 316.8,428.55 h -43.6 v -50.4 h 11.3 v 39.3 h 32.2 v 11.1 z"
         id="path5" />
      <path
         class="cls-1"
         d="m 235.4,428.55 h -11.3 v -50.4 h 27 c 9.9,0 16.5,6.1 16.5,15.2 0,9.1 -6.5,15.3 -16.5,15.3 h -15.8 v 19.9 z m 0,-31 h 15.9 c 3.2,0 4.9,-1.4 4.9,-4.2 0,-2.8 -0.5,-4.2 -5.3,-4.2 h -15.5 z"
         id="path6" />
      <path
         class="cls-1"
         d="m 370.2,428.55 h -47.7 l 24,-58.8 z m -30.9,-11.1 h 14.3 l -7.1,-17.8 z"
         id="path7" />
      <path
         class="cls-1"
         d="m 158,428.55 h -11.3 v -39.3 h -16.1 v -11.1 h 43.6 v 11.1 h -16.1 v 39.3 z"
         id="path8" />
      <path
         class="cls-1"
         d="M 125.2,428.55 H 81.6 v -50.4 h 43.6 v 11.1 H 93 v 6.6 h 30.1 v 11.1 H 93 v 10.5 h 32.2 z"
         id="path9" />
    </g>
    <path
       class="cls-1"
       d="m 76.2,428.55 h -10 v -33.7 L 47,414.05 27.8,394.85 v 33.7 h -10 v -58.8 l 29.3,29.3 29.3,-29.3 v 58.8 z"
       id="path10" />
  </g>
</svg>
