<?xml version="1.0" encoding="UTF-8" standalone="no"?>
<svg
   id="Layer_1"
   data-name="Layer 1"
   viewBox="0 0 538.6 98.600002"
   version="1.1"
   sodipodi:docname="_013.svg"
   width="538.59998"
   height="98.599998"
   xmlns:inkscape="http://www.inkscape.org/namespaces/inkscape"
   xmlns:sodipodi="http://sodipodi.sourceforge.net/DTD/sodipodi-0.dtd"
   xmlns="http://www.w3.org/2000/svg"
   xmlns:svg="http://www.w3.org/2000/svg">
  <defs
     id="defs112" />
  <sodipodi:namedview
     id="namedview112"
     pagecolor="#ffffff"
     bordercolor="#000000"
     borderopacity="0.25"
     inkscape:showpageshadow="2"
     inkscape:pageopacity="0.0"
     inkscape:pagecheckerboard="0"
     inkscape:deskcolor="#d1d1d1" />
  <style
     type="text/css"
     id="style1">.cls-1undefined</style>
  <g
     id="_013"
     data-name="013"
     transform="translate(0,-471.13)">
    <polygon
       class="cls-1"
       points="33.46,510.31 30.35,507.2 30.35,510.31 "
       id="polygon1" />
    <polygon
       class="cls-1"
       points="31.05,506.5 34.16,509.61 34.16,506.5 "
       id="polygon2" />
    <polygon
       class="cls-1"
       points="38.26,515.11 35.15,512 35.15,515.11 "
       id="polygon3" />
    <polygon
       class="cls-1"
       points="33.46,505.51 30.35,502.4 30.35,505.51 "
       id="polygon4" />
    <polygon
       class="cls-1"
       points="38.26,519.91 35.15,516.8 35.15,519.91 "
       id="polygon5" />
    <polygon
       class="cls-1"
       points="31.05,511.3 34.16,514.41 34.16,511.3 "
       id="polygon6" />
    <polygon
       class="cls-1"
       points="31.05,516.1 34.16,519.21 34.16,516.1 "
       id="polygon7" />
    <polygon
       class="cls-1"
       points="33.46,515.11 30.35,512 30.35,515.11 "
       id="polygon8" />
    <polygon
       class="cls-1"
       points="41.86,518.71 40.65,519.91 43.06,519.91 "
       id="polygon9" />
    <polygon
       class="cls-1"
       points="38.26,510.31 35.15,507.2 35.15,510.31 "
       id="polygon10" />
    <polygon
       class="cls-1"
       points="40.65,515.11 43.06,515.11 41.86,513.91 "
       id="polygon11" />
    <polygon
       class="cls-1"
       points="40.65,520.9 41.86,522.11 43.06,520.9 "
       id="polygon12" />
    <polygon
       class="cls-1"
       points="43.06,516.1 40.65,516.1 41.86,517.31 "
       id="polygon13" />
    <polygon
       class="cls-1"
       points="41.16,518.01 39.95,516.8 39.95,519.21 "
       id="polygon14" />
    <polygon
       class="cls-1"
       points="41.16,513.21 39.95,512 39.95,514.41 "
       id="polygon15" />
    <polygon
       class="cls-1"
       points="47.36,532.41 48.56,533.61 48.56,531.2 "
       id="polygon16" />
    <polygon
       class="cls-1"
       points="45.96,527.61 44.75,526.4 44.75,528.81 "
       id="polygon17" />
    <polygon
       class="cls-1"
       points="42.56,518.01 43.76,519.21 43.76,516.8 "
       id="polygon18" />
    <polygon
       class="cls-1"
       points="47.86,530.5 45.45,530.5 46.66,531.71 "
       id="polygon19" />
    <polygon
       class="cls-1"
       points="45.96,522.81 44.75,521.6 44.75,524.01 "
       id="polygon20" />
    <polygon
       class="cls-1"
       points="47.36,522.81 48.56,524.01 48.56,521.6 "
       id="polygon21" />
    <polygon
       class="cls-1"
       points="42.56,522.81 43.76,524.01 43.76,521.6 "
       id="polygon22" />
    <polygon
       class="cls-1"
       points="47.36,527.61 48.56,528.81 48.56,526.4 "
       id="polygon23" />
    <polygon
       class="cls-1"
       points="43.06,525.7 40.65,525.7 41.86,526.91 "
       id="polygon24" />
    <polygon
       class="cls-1"
       points="35.85,511.3 38.96,514.41 38.96,511.3 "
       id="polygon25" />
    <polygon
       class="cls-1"
       points="41.16,522.81 39.95,521.6 39.95,524.01 "
       id="polygon26" />
    <polygon
       class="cls-1"
       points="42.56,527.61 43.76,528.81 43.76,526.4 "
       id="polygon27" />
    <polygon
       class="cls-1"
       points="35.85,516.1 38.96,519.21 38.96,516.1 "
       id="polygon28" />
    <polygon
       class="cls-1"
       points="35.85,520.9 38.96,524.01 38.96,520.9 "
       id="polygon29" />
    <polygon
       class="cls-1"
       points="43.06,524.71 41.86,523.51 40.65,524.71 "
       id="polygon30" />
    <polygon
       class="cls-1"
       points="24.35,525.21 20.75,521.6 20.75,528.81 "
       id="polygon31" />
    <polygon
       class="cls-1"
       points="24.56,501.7 21.45,501.7 24.56,504.81 "
       id="polygon32" />
    <polygon
       class="cls-1"
       points="23.86,506.5 20.75,506.5 20.75,509.61 "
       id="polygon33" />
    <polygon
       class="cls-1"
       points="45.96,518.01 44.75,516.8 44.75,519.21 "
       id="polygon34" />
    <polygon
       class="cls-1"
       points="21.45,511.3 24.56,514.41 24.56,511.3 "
       id="polygon35" />
    <polygon
       class="cls-1"
       points="23.86,505.51 20.75,502.4 20.75,505.51 "
       id="polygon36" />
    <polygon
       class="cls-1"
       points="23.86,496.9 20.75,496.9 20.75,500.01 "
       id="polygon37" />
    <polygon
       class="cls-1"
       points="23.86,495.91 20.75,492.8 20.75,495.91 "
       id="polygon38" />
    <polygon
       class="cls-1"
       points="21.45,500.71 24.56,500.71 24.56,497.6 "
       id="polygon39" />
    <polygon
       class="cls-1"
       points="28.66,510.31 25.55,507.2 25.55,510.31 "
       id="polygon40" />
    <polygon
       class="cls-1"
       points="28.66,501.7 25.55,501.7 25.55,504.81 "
       id="polygon41" />
    <polygon
       class="cls-1"
       points="28.66,500.71 25.55,497.6 25.55,500.71 "
       id="polygon42" />
    <polygon
       class="cls-1"
       points="28.66,520.9 21.45,520.9 25.05,524.51 "
       id="polygon43" />
    <polygon
       class="cls-1"
       points="21.45,529.51 28.66,529.51 25.05,525.91 "
       id="polygon44" />
    <polygon
       class="cls-1"
       points="21.45,519.91 28.66,519.91 25.05,516.31 "
       id="polygon45" />
    <polygon
       class="cls-1"
       points="28.66,511.3 25.55,511.3 25.55,514.41 "
       id="polygon46" />
    <polygon
       class="cls-1"
       points="24.56,510.31 24.56,507.2 21.45,510.31 "
       id="polygon47" />
    <polygon
       class="cls-1"
       points="26.25,505.51 29.36,505.51 29.36,502.4 "
       id="polygon48" />
    <polygon
       class="cls-1"
       points="29.36,512 26.25,515.11 29.36,515.11 29.36,514.41 "
       id="polygon49" />
    <polygon
       class="cls-1"
       points="45.45,519.91 47.86,519.91 46.66,518.71 "
       id="polygon50" />
    <polygon
       class="cls-1"
       points="26.25,506.5 29.36,509.61 29.36,506.5 "
       id="polygon51" />
    <polygon
       class="cls-1"
       points="47.86,520.9 45.45,520.9 46.66,522.11 "
       id="polygon52" />
    <polygon
       class="cls-1"
       points="24.35,515.61 20.75,512 20.75,519.21 "
       id="polygon53" />
    <polygon
       class="cls-1"
       points="46.66,523.51 45.45,524.71 47.86,524.71 "
       id="polygon54" />
    <polygon
       class="cls-1"
       points="46.66,526.91 47.86,525.7 45.45,525.7 "
       id="polygon55" />
    <polygon
       class="cls-1"
       points="20.75,540.8 20.75,548.71 28.66,548.71 "
       id="polygon56" />
    <polygon
       class="cls-1"
       points="26.25,516.1 29.36,519.21 29.36,516.1 "
       id="polygon57" />
    <polygon
       class="cls-1"
       points="50.25,530.5 50.96,531.21 50.96,530.5 "
       id="polygon58" />
    <polygon
       class="cls-1"
       points="28.66,530.5 20.75,530.5 20.75,538.41 "
       id="polygon59" />
    <polygon
       class="cls-1"
       points="21.45,540.1 29.36,548.01 29.36,540.1 "
       id="polygon60" />
    <polygon
       class="cls-1"
       points="25.75,525.21 29.36,528.81 29.36,521.6 "
       id="polygon61" />
    <polygon
       class="cls-1"
       points="21.45,539.11 29.36,539.11 29.36,531.2 "
       id="polygon62" />
    <polygon
       class="cls-1"
       points="47.86,529.51 46.66,528.31 45.45,529.51 "
       id="polygon63" />
    <polygon
       class="cls-1"
       points="52.66,524.71 51.95,524 51.95,524.71 "
       id="polygon64" />
    <polygon
       class="cls-1"
       points="53.36,517.51 53.36,516.8 52.65,517.51 "
       id="polygon65" />
    <polygon
       class="cls-1"
       points="52.66,530.5 51.95,530.5 51.95,531.21 "
       id="polygon66" />
    <polygon
       class="cls-1"
       points="52.66,520.9 51.95,520.9 51.95,521.61 "
       id="polygon67" />
    <polygon
       class="cls-1"
       points="52.66,525.7 51.95,525.7 51.95,526.41 "
       id="polygon68" />
    <polygon
       class="cls-1"
       points="52.66,529.51 51.95,528.8 51.95,529.51 "
       id="polygon69" />
    <polygon
       class="cls-1"
       points="52.66,519.91 51.95,519.2 51.95,519.91 "
       id="polygon70" />
    <polygon
       class="cls-1"
       points="55.06,518.5 54.35,518.5 54.35,519.21 "
       id="polygon71" />
    <polygon
       class="cls-1"
       points="55.06,522.31 54.35,521.6 54.35,522.31 "
       id="polygon72" />
    <polygon
       class="cls-1"
       points="55.06,528.1 54.35,528.1 54.35,528.81 "
       id="polygon73" />
    <polygon
       class="cls-1"
       points="55.06,527.11 54.35,526.4 54.35,527.11 "
       id="polygon74" />
    <polygon
       class="cls-1"
       points="55.06,517.51 54.35,516.8 54.35,517.51 "
       id="polygon75" />
    <polygon
       class="cls-1"
       points="55.06,523.3 54.35,523.3 54.35,524.01 "
       id="polygon76" />
    <path
       class="cls-1"
       d="m 0,471.13 v 98.6 h 538.6 v -98.6 z M 78.35,549.7 H 67.76 V 516.8 L 49.05,535.51 30.34,516.8 v 32.9 H 19.75 v -59.29 l 29.3,29.3 29.3,-29.3 z m 48.2,-38.89 H 94.68 v 6.53 h 29.79 v 10.99 H 94.58 v 10.49 h 31.87 v 10.89 h 0.1 l -0.1,0.1 v -0.1 H 83.4 v -49.88 h 43.15 v 10.99 z m 32.57,38.89 H 147.84 V 510.8 H 131.9 v -10.99 h 43.15 v 10.99 h -15.94 v 38.9 z m 12.47,0 23.75,-58.2 23.46,58.2 z m 79.67,-19.69 h -15.64 v 19.7 h -11.18 v -49.88 h 26.82 c 9.8,0 16.33,6.04 16.33,15.04 0,9 -6.43,15.14 -16.33,15.14 z m 21.88,19.69 v -49.88 h 11.18 v 38.9 h 31.87 v 10.99 h -43.05 z m 48.79,0 23.75,-58.2 23.46,58.2 z m 98.78,7.43 -34.74,-36.42 v 29 H 374.79 V 493.1 l 34.74,36.42 v -29.59 h 11.18 v 57.21 z m 48.7,-46.32 h -31.87 v 6.53 h 29.79 v 10.99 h -29.79 v 10.49 h 31.87 v 10.89 h -43.15 v -49.88 h 43.15 v 10.99 z m 48.79,0 h -15.94 v 38.9 h -11.28 v -38.9 h -15.94 v -10.99 h 43.15 v 10.99 z"
       id="path76" />
    <polygon
       class="cls-1"
       points="50.26,531.91 49.55,531.2 49.55,531.91 "
       id="polygon77" />
    <polygon
       class="cls-1"
       points="50.26,532.9 49.55,532.9 49.55,533.61 "
       id="polygon78" />
    <polygon
       class="cls-1"
       points="50.25,529.51 50.96,529.51 50.96,528.8 "
       id="polygon79" />
    <path
       class="cls-1"
       d="m 250.97,510.71 h -15.34 v 8.31 0 c 0,0 15.74,0 15.74,0 3.17,0 4.85,-1.39 4.85,-4.16 0,-2.77 -0.49,-4.16 -5.25,-4.16 z"
       id="path79" />
    <polygon
       class="cls-1"
       points="352.61,538.72 345.59,521.1 338.46,538.72 "
       id="polygon80" />
    <polygon
       class="cls-1"
       points="50.26,528.1 49.55,528.1 49.55,528.81 "
       id="polygon81" />
    <polygon
       class="cls-1"
       points="50.26,522.31 49.55,521.6 49.55,522.31 "
       id="polygon82" />
    <polygon
       class="cls-1"
       points="50.96,521.61 50.96,520.9 50.25,520.9 "
       id="polygon83" />
    <polygon
       class="cls-1"
       points="50.26,523.3 49.55,523.3 49.55,524.01 "
       id="polygon84" />
    <polygon
       class="cls-1"
       points="50.96,519.91 50.96,519.2 50.25,519.91 "
       id="polygon85" />
    <polygon
       class="cls-1"
       points="50.26,527.11 49.55,526.4 49.55,527.11 "
       id="polygon86" />
    <polygon
       class="cls-1"
       points="195.24,521.1 188.12,538.72 202.27,538.72 "
       id="polygon87" />
    <polygon
       class="cls-1"
       points="52.65,522.31 53.36,522.31 53.36,521.6 "
       id="polygon88" />
    <polygon
       class="cls-1"
       points="52.65,518.5 53.36,519.21 53.36,518.5 "
       id="polygon89" />
    <polygon
       class="cls-1"
       points="55.05,524.71 55.76,524.71 55.76,524 "
       id="polygon90" />
    <polygon
       class="cls-1"
       points="55.05,525.7 55.76,526.41 55.76,525.7 "
       id="polygon91" />
    <polygon
       class="cls-1"
       points="55.05,520.9 55.76,521.61 55.76,520.9 "
       id="polygon92" />
    <polygon
       class="cls-1"
       points="55.05,519.91 55.76,519.91 55.76,519.2 "
       id="polygon93" />
    <polygon
       class="cls-1"
       points="50.25,525.7 50.96,526.41 50.96,525.7 "
       id="polygon94" />
    <polygon
       class="cls-1"
       points="50.25,524.71 50.96,524.71 50.96,524 "
       id="polygon95" />
    <polygon
       class="cls-1"
       points="52.65,523.3 53.36,524.01 53.36,523.3 "
       id="polygon96" />
    <polygon
       class="cls-1"
       points="57.45,523.3 58.16,524.01 58.16,523.3 "
       id="polygon97" />
    <polygon
       class="cls-1"
       points="52.65,527.11 53.36,527.11 53.36,526.4 "
       id="polygon98" />
    <polygon
       class="cls-1"
       points="52.65,528.1 53.36,528.81 53.36,528.1 "
       id="polygon99" />
    <polygon
       class="cls-1"
       points="57.46,519.91 56.75,519.2 56.75,519.91 "
       id="polygon100" />
    <polygon
       class="cls-1"
       points="57.46,520.9 56.75,520.9 56.75,521.61 "
       id="polygon101" />
    <polygon
       class="cls-1"
       points="57.45,522.31 58.16,522.31 58.16,521.6 "
       id="polygon102" />
    <polygon
       class="cls-1"
       points="55.76,516.81 55.76,516.1 55.05,516.1 "
       id="polygon103" />
    <polygon
       class="cls-1"
       points="57.46,525.7 56.75,525.7 56.75,526.41 "
       id="polygon104" />
    <polygon
       class="cls-1"
       points="55.76,515.11 55.76,514.4 55.05,515.11 "
       id="polygon105" />
    <polygon
       class="cls-1"
       points="57.46,516.1 56.75,516.1 56.75,516.81 "
       id="polygon106" />
    <polygon
       class="cls-1"
       points="57.46,524.71 56.75,524 56.75,524.71 "
       id="polygon107" />
    <polygon
       class="cls-1"
       points="57.45,517.51 58.16,517.51 58.16,516.8 "
       id="polygon108" />
    <polygon
       class="cls-1"
       points="57.45,513.7 58.16,514.41 58.16,513.7 "
       id="polygon109" />
    <polygon
       class="cls-1"
       points="57.46,515.11 56.75,514.4 56.75,515.11 "
       id="polygon110" />
    <polygon
       class="cls-1"
       points="57.45,518.5 58.16,519.21 58.16,518.5 "
       id="polygon111" />
    <polygon
       class="cls-1"
       points="58.16,512.71 58.16,512 57.45,512.71 "
       id="polygon112" />
  </g>
</svg>
