<svg xmlns="http://www.w3.org/2000/svg" id="Layer_1" data-name="Layer 1" viewBox="19.77 424.76 498.43 66.24">
  <defs>
    <style>
      .cls-1 {
        fill: undefined;
      }
    </style>
  </defs>
    <g id="_015" data-name="015">
    <polygon class="cls-1" points="126.55 444.68 94.68 444.68 94.68 451.21 124.48 451.21 124.48 462.2 94.58 462.2 94.58 472.69 126.45 472.69 126.45 483.58 126.55 483.58 126.45 483.67 126.45 483.58 83.4 483.58 83.4 433.69 126.55 433.69 126.55 444.68"/>
    <polygon class="cls-1" points="159.12 483.58 159.02 483.58 147.83 483.58 147.83 444.68 131.9 444.68 131.9 433.69 175.05 433.69 175.05 444.68 159.12 444.68 159.12 483.58"/>
    <polygon class="cls-1" points="273.14 483.58 273.14 433.69 284.32 433.69 284.32 472.59 316.19 472.59 316.19 483.58 273.14 483.58"/>
    <polygon class="cls-1" points="420.71 491 385.97 454.58 385.97 483.58 374.78 483.58 374.78 426.96 409.52 463.38 409.52 433.79 420.71 433.79 420.71 491"/>
    <polygon class="cls-1" points="469.41 444.68 437.53 444.68 437.53 451.21 467.33 451.21 467.33 462.2 437.53 462.2 437.53 472.69 469.41 472.69 469.41 483.58 426.25 483.58 426.25 433.69 469.41 433.69 469.41 444.68"/>
    <polygon class="cls-1" points="518.2 444.68 502.26 444.68 502.26 483.58 502.17 483.58 490.98 483.58 490.98 444.68 475.05 444.68 475.05 433.69 518.2 433.69 518.2 444.68"/>
    <path class="cls-1" d="M251.26,433.69h-26.82v49.88h11.18v-19.7h15.64c9.9,0,16.33-6.14,16.33-15.14s-6.53-15.04-16.33-15.04ZM251.36,452.89h-15.74v-8.31h15.34c4.75,0,5.25,1.39,5.25,4.16s-1.68,4.16-4.85,4.16Z"/>
    <path class="cls-1" d="M345.69,425.38l-23.75,58.2h47.21l-23.46-58.2ZM338.46,472.59l7.13-17.62,7.03,17.62h-14.15Z"/>
    <path class="cls-1" d="M195.34,425.38l-23.75,58.2h47.21l-23.46-58.2ZM195.24,454.97l7.03,17.62h-14.15l7.13-17.62Z"/>
    <path class="cls-1" d="M49.06,454.05l-29.29-29.29v58.8h10.01v-33.79l19.17,19.17.11.11,19.28-19.28v33.79h10.01v-58.8l-29.29,29.29ZM20.28,473.84h9.2v9.2l-9.2-9.2ZM20.28,454.11l4.49-4.49,4.49,4.49h-8.99ZM29.27,454.41l-4.49,4.49-4.49-4.49h8.99ZM24.63,434.98v4.34l-4.34-4.34h4.34ZM20.28,434.68l4.34-4.34v4.34h-4.34ZM55.99,456.54h-1.92v-1.92l1.92,1.92ZM54.28,454.41h1.92v1.92l-1.92-1.92ZM56.5,454.41h1.92l-1.92,1.92v-1.92ZM68.13,439.84l-.7.7v-.7h.7ZM67.43,439.54v-.7l.7.7h-.7ZM60.36,450.77h.7v.7l-.7-.7ZM60.84,451.68h-.7v-.7l.7.7ZM60.35,450.47l.7-.7v.7h-.7ZM66.92,443.48l-.7.7v-.7h.7ZM66.21,443.18v-.7l.7.7h-.7ZM65.21,445.61l.7-.7v.7h-.7ZM65.91,445.91v.7l-.7-.7h.7ZM66.21,444.91l.7.7h-.7v-.7ZM65.91,444.18l-.7-.7h.7v.7ZM65.7,444.39h-.7v-.7l.7.7ZM65.7,444.69l-.7.7v-.7h.7ZM64.7,445.4l-.7-.7h.7v.7ZM64.49,445.61h-.7v-.7l.7.7ZM64.49,445.91l-.7.7v-.7h.7ZM63.49,446.61l-.7-.7h.7v.7ZM63.27,446.82h-.7v-.7l.7.7ZM63.27,447.12l-.7.7v-.7h.7ZM62.27,447.82l-.7-.7h.7v.7ZM62.06,448.04h-.7v-.7l.7.7ZM62.06,448.34l-.7.7v-.7h.7ZM61.06,449.04l-.7-.7h.7v.7ZM61.36,449.76l.7.7h-.7v-.7ZM61.57,449.55h.7v.7l-.7-.7ZM61.57,449.25l.7-.7v.7h-.7ZM62.57,448.55l.7.7h-.7v-.7ZM62.78,448.34h.7v.7l-.7-.7ZM62.78,448.04l.7-.7v.7h-.7ZM63.79,447.34l.7.7h-.7v-.7ZM64,447.12h.7v.7l-.7-.7ZM64,446.82l.7-.7v.7h-.7ZM65,446.12l.7.7h-.7v-.7ZM66.21,445.91h.7l-.7.7v-.7ZM66.43,444.69h.7v.7l-.7-.7ZM66.43,444.39l.7-.7v.7h-.7ZM66.43,442.27h.7v.7l-.7-.7ZM66.43,441.97l.7-.7v.7h-.7ZM65.91,443.18h-.7l.7-.7v.7ZM64.7,444.39h-.7l.7-.7v.7ZM63.49,445.61h-.7l.7-.7v.7ZM62.27,446.82h-.7l.7-.7v.7ZM61.06,448.04h-.7l.7-.7v.7ZM60.84,449.25h-.7v-.7l.7.7ZM60.84,449.55l-.7.7v-.7h.7ZM59.84,450.25l-.7-.7h.7v.7ZM59.84,451.68h-.7l.7-.7v.7ZM59.84,451.98v.7l-.7-.7h.7ZM59.63,452.89h-.7v-.7l.7.7ZM58.93,453.19h.7l-.7.7v-.7ZM60.14,451.98h.7l-.7.7v-.7ZM61.36,450.77h.7l-.7.7v-.7ZM62.57,449.55h.7l-.7.7v-.7ZM63.79,448.34h.7l-.7.7v-.7ZM65,447.12h.7l-.7.7v-.7ZM66.43,446.82l.7-.7v.7h-.7ZM67.13,447.12v.7l-.7-.7h.7ZM67.43,446.12l.7.7h-.7v-.7ZM67.43,444.69h.7l-.7.7v-.7ZM67.43,444.39v-.7l.7.7h-.7ZM67.43,442.27h.7l-.7.7v-.7ZM67.43,441.97v-.7l.7.7h-.7ZM67.13,440.54l-.7-.7h.7v.7ZM66.91,440.75h-.7v-.7l.7.7ZM66.92,441.05l-.7.7v-.7h.7ZM65.91,441.75l-.7-.7h.7v.7ZM65.7,441.97h-.7v-.7l.7.7ZM65.7,442.27l-.7.7v-.7h.7ZM64.7,442.97l-.7-.7h.7v.7ZM64.49,443.18h-.7v-.7l.7.7ZM64.49,443.48l-.7.7v-.7h.7ZM63.49,444.18l-.7-.7h.7v.7ZM63.27,444.39h-.7v-.7l.7.7ZM63.27,444.69l-.7.7v-.7h.7ZM62.27,445.4l-.7-.7h.7v.7ZM62.06,445.61h-.7v-.7l.7.7ZM62.06,445.91l-.7.7v-.7h.7ZM61.06,446.61l-.7-.7h.7v.7ZM60.84,446.82h-.7v-.7l.7.7ZM60.84,447.12l-.7.7v-.7h.7ZM59.84,447.82l-.7-.7h.7v.7ZM59.84,449.25h-.7l.7-.7v.7ZM59.63,450.47h-.7v-.7l.7.7ZM58.93,450.77h.7l-.7.7v-.7ZM58.63,453.9l-1.92-1.92h1.92v1.92ZM58.42,454.11h-1.92v-1.92l1.92,1.92ZM58.93,454.62l.7.7h-.7v-.7ZM59.14,454.41h.7v.7l-.7-.7ZM59.14,454.11l.7-.7v.7h-.7ZM60.14,453.41l.7.7h-.7v-.7ZM60.35,453.19h.7v.7l-.7-.7ZM60.36,452.89l.7-.7v.7h-.7ZM61.36,452.19l.7.7h-.7v-.7ZM61.57,451.98h.7v.7l-.7-.7ZM61.57,451.68l.7-.7v.7h-.7ZM62.57,450.98l.7.7h-.7v-.7ZM62.78,450.77h.7v.7l-.7-.7ZM62.78,450.47l.7-.7v.7h-.7ZM63.79,449.76l.7.7h-.7v-.7ZM64,449.55h.7v.7l-.7-.7ZM64,449.25l.7-.7v.7h-.7ZM65,448.55l.7.7h-.7v-.7ZM65.21,448.34h.7v.7l-.7-.7ZM65.21,448.04l.7-.7v.7h-.7ZM66.21,447.34l.7.7h-.7v-.7ZM67.43,447.12h.7l-.7.7v-.7ZM67.64,445.91h.7v.7l-.7-.7ZM68.34,445.61h-.7l.7-.7v.7ZM67.64,443.48h.7v.7l-.7-.7ZM68.34,443.18h-.7l.7-.7v.7ZM67.64,441.05h.7v.7l-.7-.7ZM68.34,440.75h-.7l.7-.7v.7ZM67.64,438.62h.7v.7l-.7-.7ZM68.34,438.32h-.7l.7-.7v.7ZM67.13,439.54h-.7l.7-.7v.7ZM65.91,440.75h-.7l.7-.7v.7ZM64.7,441.97h-.7l.7-.7v.7ZM63.49,443.18h-.7l.7-.7v.7ZM62.27,444.39h-.7l.7-.7v.7ZM61.06,445.61h-.7l.7-.7v.7ZM59.84,446.82h-.7l.7-.7v.7ZM59.63,448.04h-.7v-.7l.7.7ZM58.93,448.34h.7l-.7.7v-.7ZM58.63,451.68h-1.92l1.92-1.92v1.92ZM56.2,454.11h-1.92l1.92-1.92v1.92ZM53.77,456.54h-1.92l1.92-1.92v1.92ZM49.21,456.84h1.92l-1.92,1.92v-1.92ZM49.21,459.48l1.92,1.92h-1.92v-1.92ZM49.43,459.27h1.92v1.92l-1.92-1.92ZM49.43,458.97l1.92-1.92v1.92h-1.92ZM51.64,457.05l1.92,1.92h-1.92v-1.92ZM51.86,456.84h1.92v1.92l-1.92-1.92ZM49.21,456.54v-1.92l1.92,1.92h-1.92ZM48.91,458.75l-2.07-2.07,2.07-2.07v4.13ZM48.7,458.97h-4.13l2.07-2.07,2.07,2.07ZM44.36,458.75v-4.13l2.07,2.07-2.07,2.07ZM39.5,453.9v-4.13l2.07,2.07-2.07,2.07ZM41.78,452.04l2.07,2.07h-4.13l2.07-2.07ZM29.49,444.18l-4.34-4.34h4.34v4.34ZM29.79,440.05l4.34,4.34h-4.34v-4.34ZM29.27,444.39h-4.34v-4.34l4.34,4.34ZM29.27,444.69l-4.34,4.34v-4.34h4.34ZM34.34,444.69v4.34l-4.34-4.34h4.34ZM34.64,444.91l4.34,4.34h-4.34v-4.34ZM39.2,449.55v4.34l-4.34-4.34h4.34ZM43.84,454.41l-2.07,2.07-2.07-2.07h4.13ZM44.06,454.62v4.13l-2.07-2.07,2.07-2.07ZM48.7,459.27l-2.07,2.07-2.07-2.07h4.13ZM48.91,459.48v4.13l-2.07-2.07,2.07-2.07ZM49.21,461.69h1.92l-1.92,1.92v-1.92ZM51.64,459.27h1.92l-1.92,1.92v-1.92ZM54.07,456.84h1.92l-1.92,1.92v-1.92ZM58.63,454.62v1.92h-1.92l1.92-1.92ZM58.93,455.62h.7l-.7.7v-.7ZM60.14,454.41h.7l-.7.7v-.7ZM61.36,453.19h.7l-.7.7v-.7ZM62.57,451.98h.7l-.7.7v-.7ZM63.79,450.77h.7l-.7.7v-.7ZM65,449.55h.7l-.7.7v-.7ZM66.21,448.34h.7l-.7.7v-.7ZM68.34,449.04l-.7-.7h.7v.7ZM68.34,448.04h-.7l.7-.7v.7ZM68.34,436.9l-.7-.7h.7v.7ZM68.13,437.11h-.7v-.7l.7.7ZM68.13,437.41l-.7.7v-.7h.7ZM67.13,438.11l-.7-.7h.7v.7ZM66.91,438.32h-.7v-.7l.7.7ZM66.92,438.62l-.7.7v-.7h.7ZM65.91,439.33l-.7-.7h.7v.7ZM65.7,439.54h-.7v-.7l.7.7ZM65.7,439.84l-.7.7v-.7h.7ZM64.7,440.54l-.7-.7h.7v.7ZM64.49,440.75h-.7v-.7l.7.7ZM64.49,441.05l-.7.7v-.7h.7ZM63.49,441.75l-.7-.7h.7v.7ZM63.27,441.97h-.7v-.7l.7.7ZM63.27,442.27l-.7.7v-.7h.7ZM62.27,442.97l-.7-.7h.7v.7ZM62.06,443.18h-.7v-.7l.7.7ZM62.06,443.48l-.7.7v-.7h.7ZM61.06,444.18l-.7-.7h.7v.7ZM60.84,444.39h-.7v-.7l.7.7ZM60.84,444.69l-.7.7v-.7h.7ZM59.84,445.4l-.7-.7h.7v.7ZM59.63,445.61h-.7v-.7l.7.7ZM58.93,445.91h.7l-.7.7v-.7ZM58.63,449.04l-1.92-1.92h1.92v1.92ZM58.42,449.25h-1.92v-1.92l1.92,1.92ZM58.42,449.55l-1.92,1.92v-1.92h1.92ZM56.2,451.47l-1.92-1.92h1.92v1.92ZM55.99,451.68h-1.92v-1.92l1.92,1.92ZM55.99,451.98l-1.92,1.92v-1.92h1.92ZM53.77,453.9l-1.92-1.92h1.92v1.92ZM53.56,454.11h-1.92v-1.92l1.92,1.92ZM53.56,454.41l-1.92,1.92v-1.92h1.92ZM51.34,456.32l-1.92-1.92h1.92v1.92ZM46.64,456.48l-2.07-2.07h4.13l-2.07,2.07ZM41.99,451.83l2.07-2.07v4.13l-2.07-2.07ZM41.78,451.62l-2.07-2.07h4.13l-2.07,2.07ZM34.85,444.69h4.35v4.35l-4.35-4.35ZM30,439.84h4.34v4.34l-4.34-4.34ZM25.14,439.54l4.34-4.34v4.34h-4.34ZM24.93,439.32v-4.34h4.34l-4.34,4.34ZM24.63,444.39h-4.34l4.34-4.34v4.34ZM24.63,444.69v4.34l-4.34-4.34h4.34ZM29.49,444.91v4.34h-4.34l4.34-4.34ZM29.79,444.91l4.34,4.34h-4.34v-4.34ZM38.99,454.11h-4.34v-4.34l4.34,4.34ZM41.57,456.69l-2.07,2.07v-4.13l2.07,2.07ZM41.78,456.9l2.07,2.07h-4.13l2.07-2.07ZM46.42,461.54l-2.07,2.07v-4.13l2.07,2.07ZM46.63,461.76l2.07,2.07h-4.13l2.07-2.07ZM49.21,464.34l1.92,1.92h-1.92v-1.92ZM49.43,464.12h1.92v1.92l-1.92-1.92ZM49.43,463.82l1.92-1.92v1.92h-1.92ZM51.64,461.91l1.92,1.92h-1.92v-1.92ZM51.85,461.69h1.92v1.92l-1.92-1.92ZM51.86,461.39l1.92-1.92v1.92h-1.92ZM54.07,459.48l1.92,1.92h-1.92v-1.92ZM54.28,459.27h1.92v1.92l-1.92-1.92ZM54.28,458.97l1.92-1.92v1.92h-1.92ZM56.5,457.05l1.92,1.92h-1.92v-1.92ZM56.71,456.84h1.92v1.92l-1.92-1.92ZM58.93,457.05l.7.7h-.7v-.7ZM59.14,456.84h.7v.7l-.7-.7ZM59.14,456.54l.7-.7v.7h-.7ZM60.14,455.84l.7.7h-.7v-.7ZM60.35,455.62h.7v.7l-.7-.7ZM60.36,455.32l.7-.7v.7h-.7ZM61.36,454.62l.7.7h-.7v-.7ZM61.57,454.41h.7v.7l-.7-.7ZM61.57,454.11l.7-.7v.7h-.7ZM62.57,453.41l.7.7h-.7v-.7ZM62.78,453.19h.7v.7l-.7-.7ZM62.78,452.89l.7-.7v.7h-.7ZM63.79,452.19l.7.7h-.7v-.7ZM64,451.98h.7v.7l-.7-.7ZM64,451.68l.7-.7v.7h-.7ZM65,450.98l.7.7h-.7v-.7ZM65.21,450.77h.7v.7l-.7-.7ZM65.21,450.47l.7-.7v.7h-.7ZM66.21,449.76l.7.7h-.7v-.7ZM66.43,449.55h.7v.7l-.7-.7ZM66.43,449.25l.7-.7v.7h-.7ZM67.43,448.55l.7.7h-.7v-.7ZM68.34,435.89h-.7l.7-.7v.7ZM67.13,437.11h-.7l.7-.7v.7ZM65.91,438.32h-.7l.7-.7v.7ZM64.7,439.54h-.7l.7-.7v.7ZM63.49,440.75h-.7l.7-.7v.7ZM62.27,441.97h-.7l.7-.7v.7ZM61.06,443.18h-.7l.7-.7v.7ZM59.84,444.39h-.7l.7-.7v.7ZM58.63,446.82h-1.92l1.92-1.92v1.92ZM56.2,449.25h-1.92l1.92-1.92v1.92ZM53.77,451.68h-1.92l1.92-1.92v1.92ZM51.34,454.11h-1.92l1.92-1.92v1.92ZM44.57,454.11l2.07-2.07,2.07,2.07h-4.13ZM44.36,453.9v-4.13l2.07,2.07-2.07,2.07ZM39.71,449.25l2.07-2.07,2.07,2.07h-4.13ZM39.5,449.04v-4.13l2.07,2.07-2.07,2.07ZM34.64,444.39v-4.34l4.34,4.34h-4.34ZM29.79,439.54v-4.34l4.34,4.34h-4.34ZM24.93,434.68v-4.34l4.34,4.34h-4.34ZM20.07,434.47v-4.34h4.34l-4.34,4.34ZM24.42,439.54h-4.34v-4.34l4.34,4.34ZM20.07,439.84h4.34l-4.34,4.34v-4.34ZM24.57,449.4l-4.49,4.5v-8.99l4.49,4.5ZM24.57,459.12l-4.49,4.49v-8.99l4.49,4.49ZM24.78,459.33l4.49,4.49h-8.99l4.49-4.49ZM20.07,464.12h9.2l-9.2,9.2v-9.2ZM29.49,473.54h-9.2l9.2-9.2v9.2ZM24.99,459.12l4.49-4.49v8.99l-4.49-4.49ZM25.14,449.55h4.34v4.34l-4.34-4.34ZM34.34,449.55v4.34l-4.34-4.34h4.34ZM39.2,454.41v4.34l-4.34-4.34h4.34ZM43.84,459.27l-2.07,2.07-2.07-2.07h4.13ZM44.06,459.48v4.13l-2.07-2.07,2.07-2.07ZM48.7,464.12l-2.07,2.07-2.07-2.07h4.13ZM48.91,464.34v4.13l-2.07-2.07,2.07-2.07ZM49.21,466.55h1.92l-1.92,1.92v-1.92ZM51.64,464.12h1.92l-1.92,1.92v-1.92ZM54.07,461.69h1.92l-1.92,1.92v-1.92ZM56.5,459.27h1.92l-1.92,1.92v-1.92ZM58.93,458.05h.7l-.7.7v-.7ZM60.14,456.84h.7l-.7.7v-.7ZM61.36,455.62h.7l-.7.7v-.7ZM62.57,454.41h.7l-.7.7v-.7ZM63.79,453.19h.7l-.7.7v-.7ZM65,451.98h.7l-.7.7v-.7ZM66.21,450.77h.7l-.7.7v-.7ZM67.43,449.55h.7l-.7.7v-.7ZM24.41,429.82h-4.34v-4.34l4.34,4.34ZM20.07,474.05l9.2,9.2h-9.2v-9.2Z"/>
  </g>
  </svg>